<?xml version="1.0" standalone="no"?><!DOCTYPE svg PUBLIC "-//W3C//DTD SVG 1.1//EN" "http://www.w3.org/Graphics/SVG/1.1/DTD/svg11.dtd"><svg xmlns:xlink="http://www.w3.org/1999/xlink" xmlns="http://www.w3.org/2000/svg" font-family="Myriad Pro, Helvetica, Arial" font-size="12" data-jsgraph-version="v2.2.36" tabindex="0" width="940" height="325"><defs><clipPath id="_clipplot65a7af12-75be-4045-ab4c-aa7bafaec1ac" clipPathUnits="userSpaceOnUse"><rect y="0" x="0" width="900" height="217.92432403564453"/></clipPath><marker xmlns="" viewBox="0 0 10 10" id="arrow65a7af12-75be-4045-ab4c-aa7bafaec1ac" refX="6" refY="5" markerUnits="strokeWidth" markerWidth="8" markerHeight="6" orient="auto"><path xmlns="http://www.w3.org/2000/svg" d="M 0 0 L 10 5 L 0 10 z"/></marker><marker viewBox="0 0 6 8" id="horionzalsplit_65a7af12-75be-4045-ab4c-aa7bafaec1ac" refX="3" refY="4" markerUnits="strokeWidth" markerWidth="6" markerHeight="8"><line x1="0" y1="8" x2="6" y2="0" stroke="black"/></marker><marker viewBox="0 0 8 6" id="verticalsplit_65a7af12-75be-4045-ab4c-aa7bafaec1ac" refX="4" refY="3" markerUnits="strokeWidth" markerWidth="8" markerHeight="6"><line x1="0" y1="0" x2="8" y2="6" stroke="black"/></marker><marker viewBox="0 0 10 10" id="verticalline65a7af12-75be-4045-ab4c-aa7bafaec1ac" refX="0" refY="5" markerUnits="strokeWidth" markerWidth="20" markerHeight="10" orient="auto" stroke-width="1px"><path d="M 0 -10 L 0 10" stroke="black"/></marker></defs><g><rect pointer-events="fill" fill="transparent" y="30" x="20" width="900" height="217.92432403564453"/><text text-anchor="middle" y="20" x="470"/><g transform="translate(20, 30)"><g><g><g><path shape-rendering="crispEdges" stroke="#F0F0F0" stroke-width="1" stroke-opacity="undefined" clip-path="url(#_clipplot65a7af12-75be-4045-ab4c-aa7bafaec1ac)" d="M 892.6312651696828 0 L 892.6312651696828 249.92432403564453M 871.4040562091176 0 L 871.4040562091176 249.92432403564453M 850.1768472485525 0 L 850.1768472485525 249.92432403564453M 807.7224293274174 0 L 807.7224293274174 249.92432403564453M 786.4952203668522 0 L 786.4952203668522 249.92432403564453M 765.2680114062871 0 L 765.2680114062871 249.92432403564453M 744.0408024457219 0 L 744.0408024457219 249.92432403564453M 722.8135934851567 0 L 722.8135934851567 249.92432403564453M 701.5863845245915 0 L 701.5863845245915 249.92432403564453M 680.3591755640264 0 L 680.3591755640264 249.92432403564453M 659.1319666034611 0 L 659.1319666034611 249.92432403564453M 637.904757642896 0 L 637.904757642896 249.92432403564453M 595.4503397217609 0 L 595.4503397217609 249.92432403564453M 574.2231307611958 0 L 574.2231307611958 249.92432403564453M 552.9959218006306 0 L 552.9959218006306 249.92432403564453M 531.7687128400654 0 L 531.7687128400654 249.92432403564453M 510.5415038795003 0 L 510.5415038795003 249.92432403564453M 489.3142949189351 0 L 489.3142949189351 249.92432403564453M 468.0870859583699 0 L 468.0870859583699 249.92432403564453M 446.8598769978047 0 L 446.8598769978047 249.92432403564453M 425.63266803723957 0 L 425.63266803723957 249.92432403564453M 383.17825011610455 0 L 383.17825011610455 249.92432403564453M 361.9510411555393 0 L 361.9510411555393 249.92432403564453M 340.7238321949742 0 L 340.7238321949742 249.92432403564453M 319.49662323440896 0 L 319.49662323440896 249.92432403564453M 298.26941427384384 0 L 298.26941427384384 249.92432403564453M 277.0422053132786 0 L 277.0422053132786 249.92432403564453M 255.81499635271348 0 L 255.81499635271348 249.92432403564453M 234.58778739214824 0 L 234.58778739214824 249.92432403564453M 213.36057843158312 0 L 213.36057843158312 249.92432403564453M 170.9061605104481 0 L 170.9061605104481 249.92432403564453M 149.67895154988287 0 L 149.67895154988287 249.92432403564453M 128.45174258931775 0 L 128.45174258931775 249.92432403564453M 107.22453362875251 0 L 107.22453362875251 249.92432403564453M 85.99732466818739 0 L 85.99732466818739 249.92432403564453M 64.77011570762215 0 L 64.77011570762215 249.92432403564453M 43.54290674705703 0 L 43.54290674705703 249.92432403564453M 22.315697786491796 0 L 22.315697786491796 249.92432403564453M 1.0884888259266745 0 L 1.0884888259266745 249.92432403564453"/><path shape-rendering="crispEdges" stroke="#F0F0F0" stroke-width="1" stroke-opacity="undefined" clip-path="url(#_clipplot65a7af12-75be-4045-ab4c-aa7bafaec1ac)"/></g><g><path shape-rendering="crispEdges" stroke="#DADADA" stroke-width="1" stroke-opacity="undefined" clip-path="url(#_clipplot65a7af12-75be-4045-ab4c-aa7bafaec1ac)" d="M 828.9496382879826 0 L 828.9496382879826 249.92432403564453M 616.6775486823261 0 L 616.6775486823261 249.92432403564453M 404.4054590766696 0 L 404.4054590766696 249.92432403564453M 192.13336947101322 0 L 192.13336947101322 249.92432403564453"/><path shape-rendering="crispEdges" stroke="#DADADA" stroke-width="1" stroke-opacity="undefined" clip-path="url(#_clipplot65a7af12-75be-4045-ab4c-aa7bafaec1ac)"/></g></g><g transform="translate(0 217.92432403564453)"><rect pointer-events="fill" fill="transparent"/><g><line y1="0" y2="-2" stroke="black" display="visible" x1="892.6312651696828" x2="892.6312651696828"/><line y1="0" y2="-2" stroke="black" display="visible" x1="871.4040562091176" x2="871.4040562091176"/><line y1="0" y2="-2" stroke="black" display="visible" x1="850.1768472485525" x2="850.1768472485525"/><line y1="0" y2="-2" stroke="black" display="visible" x1="807.7224293274174" x2="807.7224293274174"/><line y1="0" y2="-4" stroke="black" display="visible" x1="722.8135934851567" x2="722.8135934851567"/><line y1="0" y2="-2" stroke="black" display="visible" x1="786.4952203668522" x2="786.4952203668522"/><line y1="0" y2="-2" stroke="black" display="visible" x1="765.2680114062871" x2="765.2680114062871"/><line y1="0" y2="-2" stroke="black" display="visible" x1="744.0408024457219" x2="744.0408024457219"/><line y1="0" y2="-2" stroke="black" display="visible" x1="701.5863845245915" x2="701.5863845245915"/><line y1="0" y2="-6" stroke="black" display="visible" x1="828.9496382879826" x2="828.9496382879826"/><line y1="0" y2="-2" stroke="black" display="visible" x1="680.3591755640264" x2="680.3591755640264"/><line y1="0" y2="-2" stroke="black" display="visible" x1="659.1319666034611" x2="659.1319666034611"/><line y1="0" y2="-2" stroke="black" display="visible" x1="637.904757642896" x2="637.904757642896"/><line y1="0" y2="-2" stroke="black" display="visible" x1="595.4503397217609" x2="595.4503397217609"/><line y1="0" y2="-4" stroke="black" display="visible" x1="510.5415038795003" x2="510.5415038795003"/><line y1="0" y2="-2" stroke="black" display="visible" x1="574.2231307611958" x2="574.2231307611958"/><line y1="0" y2="-2" stroke="black" display="visible" x1="552.9959218006306" x2="552.9959218006306"/><line y1="0" y2="-2" stroke="black" display="visible" x1="531.7687128400654" x2="531.7687128400654"/><line y1="0" y2="-2" stroke="black" display="visible" x1="489.3142949189351" x2="489.3142949189351"/><line y1="0" y2="-6" stroke="black" display="visible" x1="616.6775486823261" x2="616.6775486823261"/><line y1="0" y2="-2" stroke="black" display="visible" x1="468.0870859583699" x2="468.0870859583699"/><line y1="0" y2="-2" stroke="black" display="visible" x1="446.8598769978047" x2="446.8598769978047"/><line y1="0" y2="-2" stroke="black" display="visible" x1="425.63266803723957" x2="425.63266803723957"/><line y1="0" y2="-2" stroke="black" display="visible" x1="383.17825011610455" x2="383.17825011610455"/><line y1="0" y2="-4" stroke="black" display="visible" x1="298.26941427384384" x2="298.26941427384384"/><line y1="0" y2="-2" stroke="black" display="visible" x1="361.9510411555393" x2="361.9510411555393"/><line y1="0" y2="-2" stroke="black" display="visible" x1="340.7238321949742" x2="340.7238321949742"/><line y1="0" y2="-2" stroke="black" display="visible" x1="319.49662323440896" x2="319.49662323440896"/><line y1="0" y2="-2" stroke="black" display="visible" x1="277.0422053132786" x2="277.0422053132786"/><line y1="0" y2="-6" stroke="black" display="visible" x1="404.4054590766696" x2="404.4054590766696"/><line y1="0" y2="-2" stroke="black" display="visible" x1="255.81499635271348" x2="255.81499635271348"/><line y1="0" y2="-2" stroke="black" display="visible" x1="234.58778739214824" x2="234.58778739214824"/><line y1="0" y2="-2" stroke="black" display="visible" x1="213.36057843158312" x2="213.36057843158312"/><line y1="0" y2="-2" stroke="black" display="visible" x1="170.9061605104481" x2="170.9061605104481"/><line y1="0" y2="-4" stroke="black" display="visible" x1="85.99732466818739" x2="85.99732466818739"/><line y1="0" y2="-2" stroke="black" display="visible" x1="149.67895154988287" x2="149.67895154988287"/><line y1="0" y2="-2" stroke="black" display="visible" x1="128.45174258931775" x2="128.45174258931775"/><line y1="0" y2="-2" stroke="black" display="visible" x1="107.22453362875251" x2="107.22453362875251"/><line y1="0" y2="-2" stroke="black" display="visible" x1="64.77011570762215" x2="64.77011570762215"/><line y1="0" y2="-6" stroke="black" display="visible" x1="192.13336947101322" x2="192.13336947101322"/><line y1="0" y2="-2" stroke="black" display="visible" x1="43.54290674705703" x2="43.54290674705703"/><line y1="0" y2="-2" stroke="black" display="visible" x1="22.315697786491796" x2="22.315697786491796"/><line y1="0" y2="-2" stroke="black" display="visible" x1="1.0884888259266745" x2="1.0884888259266745"/><line y1="0" y2="-2" stroke="black" display="none" x1="313.33714185890165" x2="313.33714185890165"/><line y1="0" y2="-4" stroke="black" display="none" x1="339.56453781906725" x2="339.56453781906725"/><line y1="0" y2="-2" stroke="black" display="none" x1="300.2234438788188" x2="300.2234438788188"/><line y1="0" y2="-2" stroke="black" display="none" x1="287.10974589873604" x2="287.10974589873604"/><line y1="0" y2="-2" stroke="black" display="none" x1="260.8823499385704" x2="260.8823499385704"/><line y1="0" y2="-2" stroke="black" display="none" x1="247.76865195848768" x2="247.76865195848768"/><line y1="0" y2="-6" stroke="black" display="none" x1="273.9960479186533" x2="273.9960479186533"/><line y1="0" y2="-6" stroke="black" display="none" x1="142.85906811782547" x2="142.85906811782547"/><line y1="0" y2="-2" stroke="black" display="none" x1="234.65495397840482" x2="234.65495397840482"/><line y1="0" y2="-2" stroke="black" display="none" x1="221.54125599832219" x2="221.54125599832219"/><line y1="0" y2="-2" stroke="black" display="none" x1="195.31386003815658" x2="195.31386003815658"/><line y1="0" y2="-2" stroke="black" display="none" x1="182.20016205807372" x2="182.20016205807372"/><line y1="0" y2="-2" stroke="black" display="none" x1="169.08646407799108" x2="169.08646407799108"/><line y1="0" y2="-2" stroke="black" display="none" x1="155.97276609790822" x2="155.97276609790822"/><line y1="0" y2="-4" stroke="black" display="none" x1="208.42755801823932" x2="208.42755801823932"/><line y1="0" y2="-2" stroke="black" display="none" x1="129.7453701377426" x2="129.7453701377426"/><line y1="0" y2="-2" stroke="black" display="none" x1="116.63167215765986" x2="116.63167215765986"/><line y1="0" y2="-2" stroke="black" display="none" x1="103.51797417757712" x2="103.51797417757712"/><line y1="0" y2="-2" stroke="black" display="none" x1="90.40427619749426" x2="90.40427619749426"/><line y1="0" y2="-4" stroke="black" display="none" x1="77.29057821741151" x2="77.29057821741151"/><line y1="0" y2="-2" stroke="black" display="none" x1="64.17688023732876" x2="64.17688023732876"/><line y1="0" y2="-2" stroke="black" display="none" x1="51.06318225724601" x2="51.06318225724601"/><line y1="0" y2="-2" stroke="black" display="none" x1="37.94948427716315" x2="37.94948427716315"/><line y1="0" y2="-2" stroke="black" display="none" x1="24.835786297080404" x2="24.835786297080404"/><line y1="0" y2="-6" stroke="black" display="none" x1="11.722088316997656" x2="11.722088316997656"/></g><g><text y="8" text-anchor="middle" style="dominant-baseline: hanging;" display="visible" x="828.9496382879826">1.10</text><text y="8" text-anchor="middle" style="dominant-baseline: hanging;" display="visible" x="616.6775486823261">1.15</text><text y="8" text-anchor="middle" style="dominant-baseline: hanging;" display="visible" x="404.4054590766696">1.20</text><text y="8" text-anchor="middle" style="dominant-baseline: hanging;" display="visible" x="192.13336947101322">1.25</text><text y="8" text-anchor="middle" style="dominant-baseline: hanging;" display="none" x="273.9960479186533">1.3</text><text y="8" text-anchor="middle" style="dominant-baseline: hanging;" display="none" x="142.85906811782547">1.4</text><text y="8" text-anchor="middle" style="dominant-baseline: hanging;" display="none" x="11.722088316997656">1.5</text></g><line stroke="black" shape-rendering="crispEdges" stroke-linecap="square" display="block" x1="900" x2="0" y1="0" y2="0" marker-start="" marker-end=""/><text text-anchor="middle" fill="undefined" style="display: initial;" x="450" y="22"><tspan style="dominant-baseline: hanging;">δ (ppm)</tspan><tspan display="none" style="dominant-baseline: hanging;"/><tspan dx="6" display="none" style="dominant-baseline: hanging;"/><tspan dy="-5" font-size="0.8em" display="none" style="dominant-baseline: hanging;"/></text><g/></g><g display="none"><rect pointer-events="fill" fill="transparent"/><g/><g/><line stroke="black" shape-rendering="crispEdges" stroke-linecap="square" display="none" y1="217.92432403564453" y2="0" x1="0" x2="0" marker-start="" marker-end=""/><text text-anchor="middle"><tspan/><tspan/><tspan dx="6"/><tspan dy="-5" font-size="0.8em"/></text><g/></g></g><g><g data-layer="1"><g><g><g/><g><path stroke="rgba(0,0,0,1)" stroke-width="1" fill="none" d=""/><path stroke="rgba(0,0,0,1)" stroke-width="1" fill="none" d="M 899.8000000000001 208.4 L 899.4000000000001 208.4 L 898.8000000000001 208.4 L 898 208.4 L 897.4000000000001 208.4 L 896.8000000000001 208.4 L 896.2 208.4 L 895.4000000000001 208.4 L 894.8000000000001 208.4 L 894.2 208.4 L 893.6 208.4 L 892.8000000000001 208.4 L 892.2 208.4 L 891.6 208.4 L 891 208.4 L 890.2 208.4 L 889.6 208.4 L 889 208.4 L 888.4000000000001 208.4 L 887.8000000000001 208.4 L 887 208.4 L 886.4000000000001 208.4 L 885.8000000000001 208.4 L 885.2 208.4 L 884.4000000000001 208.4 L 883.8000000000001 208.4 L 883.2 208.4 L 882.6 208.4 L 881.8000000000001 208.4 L 881.2 208.4 L 880.6 208.4 L 880 208.4 L 879.2 208.4 L 878.6 208.4 L 878 208.4 L 877.4000000000001 208.4 L 876.6 208.4 L 876 208.4 L 875.4000000000001 208.4 L 874.8000000000001 208.4 L 874 208.4 L 873.4000000000001 208.4 L 872.8000000000001 208.4 L 872.2 208.4 L 871.6 208.4 L 870.8000000000001 208.4 L 870.2 208.4 L 869.6 208.4 L 869 208.4 L 868.2 208.4 L 867.6 208.4 L 867 208.4 L 866.4000000000001 208.4 L 865.6 208.4 L 865 208.4 L 864.4000000000001 208.4 L 863.8000000000001 208.4 L 863 208.4 L 862.4000000000001 208.4 L 861.8000000000001 208.4 L 861.2 208.4 L 860.4000000000001 208.4 L 859.8000000000001 208.4 L 859.2 208.4 L 858.6 208.4 L 858 208.4 L 857.2 208.4 L 856.6 208.4 L 856 208.4 L 855.4000000000001 208.4 L 854.6 208.4 L 854 208.4 L 853.4000000000001 208.4 L 852.8000000000001 208.4 L 852 208.4 L 851.4000000000001 208.4 L 850.8000000000001 208.4 L 850.2 208.4 L 849.4000000000001 208.4 L 848.8000000000001 208.4 L 848.2 208.4 L 847.6 208.4 L 846.8000000000001 208.4 L 846.2 208.4 L 845.6 208.4 L 845 208.4 L 844.2 208.4 L 843.6 208.4 L 843 208.4 L 842.4000000000001 208.4 L 841.8000000000001 208.4 L 841 208.4 L 840.4000000000001 208.4 L 839.8000000000001 208.4 L 839.2 208.4 L 838.4000000000001 208.4 L 837.8000000000001 208.4 L 837.2 208.4 L 836.6 208.4 L 835.8000000000001 208.4 L 835.2 208.4 L 834.6 208.4 L 834 208.4 L 833.2 208.4 L 832.6 208.4 L 832 208.4 L 831.4000000000001 208.4 L 830.6 208.4 L 830 208.4 L 829.4000000000001 208.4 L 828.8000000000001 208.4 L 828.2 208.4 L 827.4000000000001 208.4 L 826.8000000000001 208.4 L 826.2 208.4 L 825.6 208.4 L 824.8000000000001 208.4 L 824.2 208.4 L 823.6 208.4 L 823 208.4 L 822.2 208.4 L 821.6 208.4 L 821 208.4 L 820.4000000000001 208.4 L 819.6 208.4 L 819 208.4 L 818.4000000000001 208.4 L 817.8000000000001 208.4 L 817 208.4 L 816.4000000000001 208.4 L 815.8000000000001 208.4 L 815.2 208.4 L 814.6 208.4 L 813.8000000000001 208.4 L 813.2 208.4 L 812.6 208.4 L 812 208.4 L 811.2 208.4 L 810.6 208.4 L 810 208.4 L 809.4000000000001 208.4 L 808.6 208.4 L 808 208.4 L 807.4000000000001 208.4 L 806.8000000000001 208.4 L 806 208.4 L 805.4000000000001 208.4 L 804.8000000000001 208.4 L 804.2 208.4 L 803.4000000000001 208.4 L 802.8000000000001 208.4 L 802.2 208.4 L 801.6 208.4 L 800.8000000000001 208.4 L 800.2 208.4 L 799.6 208.4 L 799 208.4 L 798.4000000000001 208.4 L 797.6 208.4 L 797 208.4 L 796.4000000000001 208.4 L 795.8000000000001 208.4 L 795 208.4 L 794.4000000000001 208.4 L 793.8000000000001 208.4 L 793.2 208.4 L 792.4000000000001 208.4 L 791.8000000000001 208.4 L 791.2 208.4 L 790.6 208.4 L 789.8000000000001 208.4 L 789.2 208.4 L 788.6 208.4 L 788 208.4 L 787.2 208.4 L 786.6 208.4 L 786 208.4 L 785.4000000000001 208.4 L 784.8000000000001 208.4 L 784 208.4 L 783.4000000000001 208.4 L 782.8000000000001 208.4 L 782.2 208.4 L 781.4000000000001 208.4 L 780.8000000000001 208.4 L 780.2 208.4 L 779.6 208.4 L 778.8000000000001 208.4 L 778.2 208.4 L 777.6 208.4 L 777 208.4 L 776.2 208.4 L 775.6 208.4 L 775 208.4 L 774.4000000000001 208.4 L 773.6 208.4 L 773 208.4 L 772.4000000000001 208.4 L 771.8000000000001 208.4 L 771 208.4 L 770.4000000000001 208.4 L 769.8000000000001 208.4 L 769.2 208.4 L 768.6 208.4 L 767.8000000000001 208.4 L 767.2 208.4 L 766.6 208.4 L 766 208.4 L 765.2 208.4 L 764.6 208.4 L 764 208.4 L 763.4000000000001 208.4 L 762.6 208.4 L 762 208.4 L 761.4000000000001 208.4 L 760.8000000000001 208.4 L 760 208.4 L 759.4000000000001 208.4 L 758.8000000000001 208.4 L 758.2 208.4 L 757.4000000000001 208.4 L 756.8000000000001 208.4 L 756.2 208.4 L 755.6 208.4 L 755 208.4 L 754.2 208.4 L 753.6 208.4 L 753 208.4 L 752.4000000000001 208.4 L 751.6 208.4 L 751 208.4 L 750.4000000000001 208.4 L 749.8000000000001 208.4 L 749 208.4 L 748.4000000000001 208.4 L 747.8000000000001 208.4 L 747.2 208.4 L 746.4000000000001 208.4 L 745.8000000000001 208.4 L 745.2 208.4 L 744.6 208.4 L 743.8000000000001 208.4 L 743.2 208.4 L 742.6 208.4 L 742 208.4 L 741.2 208.4 L 740.6 208.4 L 740 208.4 L 739.4000000000001 208.4 L 738.8000000000001 208.4 L 738 208.4 L 737.4000000000001 208.4 L 736.8000000000001 208.4 L 736.2 208.4 L 735.4000000000001 208.4 L 734.8000000000001 208.4 L 734.2 208.4 L 733.6 208.4 L 732.8000000000001 208.4 L 732.2 208.4 L 731.6 208.4 L 731 208.4 L 730.2 208.4 L 729.6 208.4 L 729 208.4 L 728.4000000000001 208.4 L 727.6 208.4 L 727 208.4 L 726.4000000000001 208.4 L 725.8000000000001 208.4 L 725.2 208.4 L 724.4000000000001 208.4 L 723.8000000000001 208.4 L 723.2 208.4 L 722.6 208.4 L 721.8000000000001 208.4 L 721.2 208.4 L 720.6 208.4 L 720 208.4 L 719.2 208.4 L 718.6 208.4 L 718 208.4 L 717.4000000000001 208.4 L 716.6 208.4 L 716 208.4 L 715.4000000000001 208.4 L 714.8000000000001 208.4 L 714 208.4 L 713.4000000000001 208.4 L 712.8000000000001 208.4 L 712.2 208.4 L 711.4000000000001 208.4 L 710.8000000000001 208.4 L 710.2 208.4 L 709.6 208.4 L 709 208.4 L 708.2 208.4 L 707.6 208.4 L 707 208.4 L 706.4000000000001 208.4 L 705.6 208.4 L 705 208.4 L 704.4000000000001 208.4 L 703.8000000000001 208.4 L 703 208.4 L 702.4000000000001 208.4 L 701.8000000000001 208.4 L 701.2 208.4 L 700.4000000000001 208.4 L 699.8000000000001 208.4 L 699.2 208.4 L 698.6 208.4 L 697.8000000000001 208.4 L 697.2 208.4 L 696.6 208.4 L 696 208.4 L 695.4000000000001 208.4 L 694.6 208.4 L 694 208.4 L 693.4000000000001 208.4 L 692.8000000000001 208.4 L 692 208.4 L 691.4000000000001 208.4 L 690.8000000000001 208.4 L 690.2 208.4 L 689.4000000000001 208.4 L 688.8000000000001 208.4 L 688.2 208.4 L 687.6 208.4 L 686.8000000000001 208.4 L 686.2 208.4 L 685.6 208.4 L 685 208.4 L 684.2 208.4 L 683.6 208.4 L 683 208.4 L 682.4000000000001 208.4 L 681.6 208.4 L 681 208.4 L 680.4000000000001 208.4 L 679.8000000000001 208.4 L 679.2 208.4 L 678.4000000000001 208.4 L 677.8000000000001 208.4 L 677.2 208.4 L 676.6 208.4 L 675.8000000000001 208.4 L 675.2 208.4 L 674.6 208.4 L 674 208.4 L 673.2 208.4 L 672.6 208.4 L 672 208.4 L 671.4000000000001 208.4 L 670.6 208.4 L 670 208.4 L 669.4000000000001 208.4 L 668.8000000000001 208.4 L 668 208.4 L 667.4000000000001 208.4 L 666.8000000000001 208.4 L 666.2 208.4 L 665.6 208.4 L 664.8000000000001 208.4 L 664.2 208.4 L 663.6 208.4 L 663 208.4 L 662.2 208.4 L 661.6 208.4 L 661 208.4 L 660.4000000000001 208.4 L 659.6 208.4 L 659 208.4 L 658.4000000000001 208.4 L 657.8000000000001 208.4 L 657 208.4 L 656.4000000000001 208.4 L 655.8000000000001 208.4 L 655.2 208.4 L 654.4000000000001 208.4 L 653.8000000000001 208.4 L 653.2 208.4 L 652.6 208.4 L 651.8000000000001 208.4 L 651.2 208.4 L 650.6 208.4 L 650 208.4 L 649.4000000000001 208.4 L 648.6 208.4 L 648 208.4 L 647.4000000000001 208.4 L 646.8000000000001 208.4 L 646 208.4 L 645.4000000000001 208.4 L 644.8000000000001 208.4 L 644.2 208.4 L 643.4000000000001 208.4 L 642.8000000000001 208.4 L 642.2 208.4 L 641.6 208.4 L 640.8000000000001 208.4 L 640.2 208.4 L 639.6 208.4 L 639 208.4 L 638.2 208.4 L 637.6 208.4 L 637 208.4 L 636.4000000000001 208.4 L 635.8000000000001 208.4 L 635 208.4 L 634.4000000000001 208.4 L 633.8000000000001 208.4 L 633.2 208.4 L 632.4000000000001 208.4 L 631.8000000000001 208.4 L 631.2 208.4 L 630.6 208.4 L 629.8000000000001 208.4 L 629.2 208.4 L 628.6 208.4 L 628 208.4 L 627.2 208.4 L 626.6 208.4 L 626 208.4 L 625.4000000000001 208.4 L 624.6 208.4 L 624 208.4 L 623.4000000000001 208.4 L 622.8000000000001 208.4 L 622.2 208.4 L 621.4000000000001 208.4 L 620.8000000000001 208.4 L 620.2 208.4 L 619.6 208.4 L 618.8000000000001 208.4 L 618.2 208.4 L 617.6 208.4 L 617 208.4 L 616.2 208.4 L 615.6 208.4 L 615 208.4 L 614.4000000000001 208.4 L 613.6 208.4 L 613 208.4 L 612.4 208.4 L 611.8000000000001 208.4 L 611 208.4 L 610.4 208.4 L 609.8000000000001 208.4 L 609.2 208.4 L 608.4 208.4 L 607.8000000000001 208.4 L 607.2 208.4 L 606.6 208.4 L 606 208.4 L 605.2 208.4 L 604.6 208.4 L 604 208.4 L 603.4 208.4 L 602.6 208.4 L 602 208.4 L 601.4 208.4 L 600.8000000000001 208.4 L 600 208.4 L 599.4 208.4 L 598.8000000000001 208.4 L 598.2 208.4 L 597.4 208.4 L 596.8000000000001 208.4 L 596.2 208.4 L 595.6 208.4 L 594.8000000000001 208.4 L 594.2 208.4 L 593.6 208.4 L 593 208.4 L 592.4 208.4 L 591.6 208.4 L 591 208.4 L 590.4 208.4 L 589.8000000000001 208.4 L 589 208.4 L 588.4 208.4 L 587.8000000000001 208.4 L 587.2 208.4 L 586.4 208.4 L 585.8000000000001 208.4 L 585.2 208.4 L 584.6 208.4 L 583.8000000000001 208.4 L 583.2 208.4 L 582.6 208.4 L 582 208.4 L 581.2 208.4 L 580.6 208.4 L 580 208.4 L 579.4 208.4 L 578.6 208.4 L 578 208.4 L 577.4 208.4 L 576.8000000000001 208.4 L 576.2 208.4 L 575.4 208.4 L 574.8000000000001 208.4 L 574.2 208.4 L 573.6 208.4 L 572.8000000000001 208.4 L 572.2 208.4 L 571.6 208.4 L 571 208.4 L 570.2 208.4 L 569.6 208.4 L 569 208.4 L 568.4 208.4 L 567.6 208.4 L 567 208.4 L 566.4 208.4 L 565.8000000000001 208.4 L 565 208.4 L 564.4 208.4 L 563.8000000000001 208.4 L 563.2 208.4 L 562.6 208.4 L 561.8000000000001 208.4 L 561.2 208.4 L 560.6 208.4 L 560 208.4 L 559.2 208.4 L 558.6 208.4 L 558 208.4 L 557.4 208.4 L 556.6 208.4 L 556 208.4 L 555.4 208.4 L 554.8000000000001 208.4 L 554 208.4 L 553.4 208.4 L 552.8000000000001 208.4 L 552.2 208.4 L 551.4 208.4 L 550.8000000000001 208.4 L 550.2 208.4 L 549.6 208.4 L 548.8000000000001 208.4 L 548.2 208.4 L 547.6 208.4 L 547 208.20000000000002 L 546.4 208.20000000000002 L 545.6 208.20000000000002 L 545 208 L 544.4 207.8 L 543.8000000000001 207.4 L 543 207 L 542.4 206.4 L 541.8000000000001 205.4 L 541.2 204.20000000000002 L 540.4 202.4 L 539.8000000000001 200.20000000000002 L 539.2 197.20000000000002 L 538.6 193.60000000000002 L 537.8000000000001 189 L 537.2 183.60000000000002 L 536.6 177.60000000000002 L 536 170.60000000000002 L 535.2 163 L 534.6 155 L 534 147 L 533.4 139 L 532.8000000000001 131.8 L 532 125.4 L 531.4 120.4 L 530.8000000000001 116.80000000000001 L 530.2 115.2 L 529.4 115.4 L 528.8000000000001 117.60000000000001 L 528.2 121.4 L 527.6 126.80000000000001 L 526.8000000000001 133.4 L 526.2 140.8 L 525.6 148.8 L 525 156.8 L 524.2 164.8 L 523.6 172.20000000000002 L 523 179 L 522.4 185 L 521.6 190 L 521 194.4 L 520.4 197.8 L 519.8000000000001 200.60000000000002 L 519 202.8 L 518.4 204.4 L 517.8000000000001 205.60000000000002 L 517.2 206.60000000000002 L 516.6 207.20000000000002 L 515.8000000000001 207.60000000000002 L 515.2 207.8 L 514.6 208 L 514 208.20000000000002 L 513.2 208.20000000000002 L 512.6 208.20000000000002 L 512 208.4 L 511.40000000000003 208.4 L 510.6 208.4 L 510 208.4 L 509.40000000000003 208.4 L 508.8 208.4 L 508 208.4 L 507.40000000000003 208.4 L 506.8 208.4 L 506.20000000000005 208.4 L 505.40000000000003 208.4 L 504.8 208.4 L 504.20000000000005 208.4 L 503.6 208.4 L 503 208.4 L 502.20000000000005 208.4 L 501.6 208.4 L 501 208.4 L 500.40000000000003 208.4 L 499.6 208.4 L 499 208.4 L 498.40000000000003 208.4 L 497.8 208.4 L 497 208.4 L 496.40000000000003 208.4 L 495.8 208.4 L 495.20000000000005 208.4 L 494.40000000000003 208.4 L 493.8 208.4 L 493.20000000000005 208.4 L 492.6 208.4 L 491.8 208.4 L 491.20000000000005 208.4 L 490.6 208.4 L 490 208.4 L 489.20000000000005 208.4 L 488.6 208.4 L 488 208.4 L 487.40000000000003 208.4 L 486.8 208.4 L 486 208.4 L 485.40000000000003 208.4 L 484.8 208.4 L 484.20000000000005 208.4 L 483.40000000000003 208.4 L 482.8 208.4 L 482.20000000000005 208.4 L 481.6 208.4 L 480.8 208.4 L 480.20000000000005 208.4 L 479.6 208.4 L 479 208.4 L 478.20000000000005 208.4 L 477.6 208.20000000000002 L 477 208.20000000000002 L 476.40000000000003 208.20000000000002 L 475.6 208 L 475 207.8 L 474.40000000000003 207.4 L 473.8 206.8 L 473.20000000000005 206 L 472.40000000000003 204.60000000000002 L 471.8 203 L 471.20000000000005 200.4 L 470.6 197.20000000000002 L 469.8 192.8 L 469.20000000000005 187 L 468.6 180 L 468 171.20000000000002 L 467.20000000000005 160.60000000000002 L 466.6 148.4 L 466 134.6 L 465.40000000000003 119.4 L 464.6 103.4 L 464 86.80000000000001 L 463.40000000000003 70.60000000000001 L 462.8 55.400000000000006 L 462 42 L 461.40000000000003 31.200000000000003 L 460.8 23.400000000000002 L 460.20000000000005 19.200000000000003 L 459.40000000000003 18.8 L 458.8 22.400000000000002 L 458.20000000000005 29.6 L 457.6 40 L 457 53 L 456.20000000000005 68 L 455.6 84 L 455 100.60000000000001 L 454.40000000000003 116.80000000000001 L 453.6 132.20000000000002 L 453 146.20000000000002 L 452.40000000000003 158.60000000000002 L 451.8 169.4 L 451 178.60000000000002 L 450.40000000000003 186 L 449.8 191.8 L 449.20000000000005 196.4 L 448.40000000000003 200 L 447.8 202.60000000000002 L 447.20000000000005 204.4 L 446.6 205.8 L 445.8 206.60000000000002 L 445.20000000000005 207.20000000000002 L 444.6 207.60000000000002 L 444 208 L 443.40000000000003 208.20000000000002 L 442.6 208.20000000000002 L 442 208.20000000000002 L 441.40000000000003 208.4 L 440.8 208.4 L 440 208.4 L 439.40000000000003 208.4 L 438.8 208.4 L 438.20000000000005 208.4 L 437.40000000000003 208.4 L 436.8 208.4 L 436.20000000000005 208.4 L 435.6 208.4 L 434.8 208.4 L 434.20000000000005 208.4 L 433.6 208.4 L 433 208.4 L 432.20000000000005 208.4 L 431.6 208.4 L 431 208.4 L 430.40000000000003 208.4 L 429.6 208.4 L 429 208.4 L 428.40000000000003 208.4 L 427.8 208.4 L 427.20000000000005 208.4 L 426.40000000000003 208.4 L 425.8 208.4 L 425.20000000000005 208.4 L 424.6 208.4 L 423.8 208.4 L 423.20000000000005 208.4 L 422.6 208.4 L 422 208.4 L 421.20000000000005 208.4 L 420.6 208.4 L 420 208.4 L 419.40000000000003 208.4 L 418.6 208.4 L 418 208.4 L 417.40000000000003 208.4 L 416.8 208.4 L 416 208.4 L 415.40000000000003 208.4 L 414.8 208.4 L 414.20000000000005 208.4 L 413.6 208.4 L 412.8 208.4 L 412.20000000000005 208.4 L 411.6 208.4 L 411 208.4 L 410.20000000000005 208.4 L 409.6 208.4 L 409 208.4 L 408.40000000000003 208.4 L 407.6 208.4 L 407 208.20000000000002 L 406.40000000000003 208.20000000000002 L 405.8 208.20000000000002 L 405 208 L 404.40000000000003 207.8 L 403.8 207.60000000000002 L 403.20000000000005 207.20000000000002 L 402.40000000000003 206.60000000000002 L 401.8 205.8 L 401.20000000000005 204.60000000000002 L 400.6 203 L 400 200.8 L 399.20000000000005 198.20000000000002 L 398.6 194.60000000000002 L 398 190.4 L 397.40000000000003 185.20000000000002 L 396.6 179.20000000000002 L 396 172.20000000000002 L 395.40000000000003 164.60000000000002 L 394.8 156.60000000000002 L 394 148.20000000000002 L 393.40000000000003 140 L 392.8 132.20000000000002 L 392.20000000000005 125.2 L 391.40000000000003 119.4 L 390.8 115.2 L 390.20000000000005 112.80000000000001 L 389.6 112.2 L 388.8 113.60000000000001 L 388.20000000000005 116.80000000000001 L 387.6 121.80000000000001 L 387 128.20000000000002 L 386.20000000000005 135.6 L 385.6 143.6 L 385 152 L 384.40000000000003 160.20000000000002 L 383.8 168 L 383 175.4 L 382.40000000000003 181.8 L 381.8 187.60000000000002 L 381.20000000000005 192.4 L 380.40000000000003 196.20000000000002 L 379.8 199.4 L 379.20000000000005 201.8 L 378.6 203.8 L 377.8 205.20000000000002 L 377.20000000000005 206.20000000000002 L 376.6 206.8 L 376 207.4 L 375.20000000000005 207.8 L 374.6 208 L 374 208.20000000000002 L 373.40000000000003 208.20000000000002 L 372.6 208.20000000000002 L 372 208.4 L 371.40000000000003 208.4 L 370.8 208.4 L 370.20000000000005 208.4 L 369.40000000000003 208.4 L 368.8 208.4 L 368.20000000000005 208.4 L 367.6 208.4 L 366.8 208.4 L 366.20000000000005 208.4 L 365.6 208.4 L 365 208.4 L 364.20000000000005 208.4 L 363.6 208.4 L 363 208.4 L 362.40000000000003 208.4 L 361.6 208.4 L 361 208.4 L 360.40000000000003 208.4 L 359.8 208.4 L 359 208.4 L 358.40000000000003 208.4 L 357.8 208.4 L 357.20000000000005 208.4 L 356.40000000000003 208.4 L 355.8 208.4 L 355.20000000000005 208.4 L 354.6 208.4 L 354 208.4 L 353.20000000000005 208.4 L 352.6 208.4 L 352 208.4 L 351.40000000000003 208.4 L 350.6 208.4 L 350 208.4 L 349.40000000000003 208.4 L 348.8 208.4 L 348 208.4 L 347.40000000000003 208.4 L 346.8 208.4 L 346.20000000000005 208.4 L 345.40000000000003 208.4 L 344.8 208.4 L 344.20000000000005 208.4 L 343.6 208.4 L 342.8 208.4 L 342.20000000000005 208.4 L 341.6 208.4 L 341 208.4 L 340.40000000000003 208.4 L 339.6 208.4 L 339 208.4 L 338.40000000000003 208.4 L 337.8 208.4 L 337 208.4 L 336.40000000000003 208.4 L 335.8 208.4 L 335.20000000000005 208.4 L 334.40000000000003 208.4 L 333.8 208.4 L 333.20000000000005 208.4 L 332.6 208.4 L 331.8 208.4 L 331.20000000000005 208.4 L 330.6 208.4 L 330 208.4 L 329.20000000000005 208.4 L 328.6 208.4 L 328 208.4 L 327.40000000000003 208.4 L 326.6 208.4 L 326 208.4 L 325.40000000000003 208.4 L 324.8 208.4 L 324.20000000000005 208.4 L 323.40000000000003 208.4 L 322.8 208.4 L 322.20000000000005 208.4 L 321.6 208.4 L 320.8 208.4 L 320.20000000000005 208.4 L 319.6 208.4 L 319 208.4 L 318.20000000000005 208.4 L 317.6 208.4 L 317 208.4 L 316.40000000000003 208.4 L 315.6 208.4 L 315 208.4 L 314.40000000000003 208.4 L 313.8 208.4 L 313 208.4 L 312.40000000000003 208.4 L 311.8 208.4 L 311.20000000000005 208.4 L 310.6 208.4 L 309.8 208.4 L 309.20000000000005 208.4 L 308.6 208.4 L 308 208.4 L 307.20000000000005 208.4 L 306.6 208.4 L 306 208.4 L 305.40000000000003 208.4 L 304.6 208.4 L 304 208.4 L 303.40000000000003 208.4 L 302.8 208.4 L 302 208.4 L 301.40000000000003 208.4 L 300.8 208.4 L 300.2 208.4 L 299.40000000000003 208.4 L 298.8 208.4 L 298.2 208.4 L 297.6 208.4 L 296.8 208.4 L 296.2 208.4 L 295.6 208.4 L 295 208.4 L 294.40000000000003 208.4 L 293.6 208.4 L 293 208.4 L 292.40000000000003 208.4 L 291.8 208.4 L 291 208.4 L 290.40000000000003 208.4 L 289.8 208.4 L 289.2 208.4 L 288.40000000000003 208.4 L 287.8 208.4 L 287.2 208.4 L 286.6 208.4 L 285.8 208.4 L 285.2 208.4 L 284.6 208.4 L 284 208.4 L 283.2 208.4 L 282.6 208.4 L 282 208.4 L 281.40000000000003 208.4 L 280.8 208.4 L 280 208.4 L 279.40000000000003 208.4 L 278.8 208.4 L 278.2 208.4 L 277.40000000000003 208.4 L 276.8 208.4 L 276.2 208.4 L 275.6 208.4 L 274.8 208.4 L 274.2 208.4 L 273.6 208.4 L 273 208.4 L 272.2 208.4 L 271.6 208.4 L 271 208.4 L 270.40000000000003 208.4 L 269.6 208.4 L 269 208.4 L 268.40000000000003 208.4 L 267.8 208.4 L 267 208.4 L 266.40000000000003 208.4 L 265.8 208.4 L 265.2 208.4 L 264.6 208.4 L 263.8 208.4 L 263.2 208.4 L 262.6 208.4 L 262 208.4 L 261.2 208.4 L 260.6 208.4 L 260 208.4 L 259.40000000000003 208.4 L 258.6 208.4 L 258 208.4 L 257.40000000000003 208.4 L 256.8 208.4 L 256 208.4 L 255.4 208.4 L 254.8 208.4 L 254.20000000000002 208.4 L 253.4 208.4 L 252.8 208.4 L 252.20000000000002 208.4 L 251.60000000000002 208.4 L 251 208.4 L 250.20000000000002 208.4 L 249.60000000000002 208.4 L 249 208.4 L 248.4 208.4 L 247.60000000000002 208.4 L 247 208.4 L 246.4 208.4 L 245.8 208.4 L 245 208.4 L 244.4 208.4 L 243.8 208.4 L 243.20000000000002 208.4 L 242.4 208.4 L 241.8 208.4 L 241.20000000000002 208.4 L 240.60000000000002 208.4 L 239.8 208.4 L 239.20000000000002 208.4 L 238.60000000000002 208.4 L 238 208.4 L 237.20000000000002 208.4 L 236.60000000000002 208.4 L 236 208.4 L 235.4 208.4 L 234.8 208.4 L 234 208.4 L 233.4 208.4 L 232.8 208.4 L 232.20000000000002 208.4 L 231.4 208.4 L 230.8 208.4 L 230.20000000000002 208.4 L 229.60000000000002 208.4 L 228.8 208.4 L 228.20000000000002 208.4 L 227.60000000000002 208.4 L 227 208.4 L 226.20000000000002 208.4 L 225.60000000000002 208.4 L 225 208.4 L 224.4 208.4 L 223.60000000000002 208.4 L 223 208.4 L 222.4 208.4 L 221.8 208.4 L 221.20000000000002 208.4 L 220.4 208.4 L 219.8 208.4 L 219.20000000000002 208.4 L 218.60000000000002 208.4 L 217.8 208.4 L 217.20000000000002 208.4 L 216.60000000000002 208.4 L 216 208.4 L 215.20000000000002 208.4 L 214.60000000000002 208.4 L 214 208.4 L 213.4 208.4 L 212.60000000000002 208.4 L 212 208.4 L 211.4 208.4 L 210.8 208.4 L 210 208.4 L 209.4 208.4 L 208.8 208.4 L 208.20000000000002 208.4 L 207.4 208.4 L 206.8 208.4 L 206.20000000000002 208.4 L 205.60000000000002 208.4 L 205 208.4 L 204.20000000000002 208.4 L 203.60000000000002 208.4 L 203 208.4 L 202.4 208.4 L 201.60000000000002 208.4 L 201 208.4 L 200.4 208.4 L 199.8 208.4 L 199 208.4 L 198.4 208.4 L 197.8 208.4 L 197.20000000000002 208.4 L 196.4 208.4 L 195.8 208.4 L 195.20000000000002 208.4 L 194.60000000000002 208.4 L 193.8 208.4 L 193.20000000000002 208.4 L 192.60000000000002 208.4 L 192 208.4 L 191.4 208.4 L 190.60000000000002 208.4 L 190 208.4 L 189.4 208.4 L 188.8 208.4 L 188 208.4 L 187.4 208.4 L 186.8 208.4 L 186.20000000000002 208.4 L 185.4 208.4 L 184.8 208.4 L 184.20000000000002 208.4 L 183.60000000000002 208.4 L 182.8 208.4 L 182.20000000000002 208.4 L 181.60000000000002 208.4 L 181 208.4 L 180.20000000000002 208.4 L 179.60000000000002 208.4 L 179 208.4 L 178.4 208.4 L 177.8 208.4 L 177 208.4 L 176.4 208.4 L 175.8 208.4 L 175.20000000000002 208.4 L 174.4 208.4 L 173.8 208.4 L 173.20000000000002 208.4 L 172.60000000000002 208.4 L 171.8 208.4 L 171.20000000000002 208.4 L 170.60000000000002 208.4 L 170 208.4 L 169.20000000000002 208.4 L 168.60000000000002 208.4 L 168 208.4 L 167.4 208.4 L 166.60000000000002 208.4 L 166 208.4 L 165.4 208.4 L 164.8 208.4 L 164 208.4 L 163.4 208.4 L 162.8 208.4 L 162.20000000000002 208.4 L 161.60000000000002 208.4 L 160.8 208.4 L 160.20000000000002 208.4 L 159.60000000000002 208.4 L 159 208.4 L 158.20000000000002 208.4 L 157.60000000000002 208.4 L 157 208.4 L 156.4 208.4 L 155.60000000000002 208.4 L 155 208.4 L 154.4 208.4 L 153.8 208.4 L 153 208.4 L 152.4 208.4 L 151.8 208.4 L 151.20000000000002 208.4 L 150.4 208.4 L 149.8 208.4 L 149.20000000000002 208.4 L 148.6 208.4 L 148 208.4 L 147.20000000000002 208.4 L 146.6 208.4 L 146 208.4 L 145.4 208.4 L 144.6 208.4 L 144 208.4 L 143.4 208.4 L 142.8 208.4 L 142 208.4 L 141.4 208.4 L 140.8 208.4 L 140.20000000000002 208.4 L 139.4 208.4 L 138.8 208.4 L 138.20000000000002 208.4 L 137.6 208.4 L 136.8 208.4 L 136.20000000000002 208.4 L 135.6 208.4 L 135 208.4 L 134.20000000000002 208.4 L 133.6 208.4 L 133 208.4 L 132.4 208.4 L 131.8 208.4 L 131 208.4 L 130.4 208.4 L 129.8 208.4 L 129.20000000000002 208.4 L 128.4 208.4 L 127.80000000000001 208.4 L 127.2 208.4 L 126.60000000000001 208.4 L 125.80000000000001 208.4 L 125.2 208.4 L 124.60000000000001 208.4 L 124 208.4 L 123.2 208.4 L 122.60000000000001 208.4 L 122 208.4 L 121.4 208.4 L 120.60000000000001 208.4 L 120 208.4 L 119.4 208.4 L 118.80000000000001 208.4 L 118.2 208.4 L 117.4 208.4 L 116.80000000000001 208.4 L 116.2 208.4 L 115.60000000000001 208.4 L 114.80000000000001 208.4 L 114.2 208.4 L 113.60000000000001 208.4 L 113 208.4 L 112.2 208.4 L 111.60000000000001 208.4 L 111 208.4 L 110.4 208.4 L 109.60000000000001 208.4 L 109 208.4 L 108.4 208.4 L 107.80000000000001 208.4 L 107 208.4 L 106.4 208.4 L 105.80000000000001 208.4 L 105.2 208.4 L 104.4 208.4 L 103.80000000000001 208.4 L 103.2 208.4 L 102.60000000000001 208.4 L 102 208.4 L 101.2 208.4 L 100.60000000000001 208.4 L 100 208.4 L 99.4 208.4 L 98.60000000000001 208.4 L 98 208.4 L 97.4 208.4 L 96.80000000000001 208.4 L 96 208.4 L 95.4 208.4 L 94.80000000000001 208.4 L 94.2 208.4 L 93.4 208.4 L 92.80000000000001 208.4 L 92.2 208.4 L 91.60000000000001 208.4 L 90.80000000000001 208.4 L 90.2 208.4 L 89.60000000000001 208.4 L 89 208.4 L 88.4 208.4 L 87.60000000000001 208.4 L 87 208.4 L 86.4 208.4 L 85.80000000000001 208.4 L 85 208.4 L 84.4 208.4 L 83.80000000000001 208.4 L 83.2 208.4 L 82.4 208.4 L 81.80000000000001 208.4 L 81.2 208.4 L 80.60000000000001 208.4 L 79.80000000000001 208.4 L 79.2 208.4 L 78.60000000000001 208.4 L 78 208.4 L 77.2 208.4 L 76.60000000000001 208.4 L 76 208.4 L 75.4 208.4 L 74.60000000000001 208.4 L 74 208.4 L 73.4 208.4 L 72.8 208.4 L 72.2 208.4 L 71.4 208.4 L 70.8 208.4 L 70.2 208.4 L 69.60000000000001 208.4 L 68.8 208.4 L 68.2 208.4 L 67.60000000000001 208.4 L 67 208.4 L 66.2 208.4 L 65.60000000000001 208.4 L 65 208.4 L 64.4 208.4 L 63.6 208.4 L 63 208.4 L 62.400000000000006 208.4 L 61.800000000000004 208.4 L 61 208.4 L 60.400000000000006 208.4 L 59.800000000000004 208.4 L 59.2 208.4 L 58.6 208.4 L 57.800000000000004 208.4 L 57.2 208.4 L 56.6 208.4 L 56 208.4 L 55.2 208.4 L 54.6 208.4 L 54 208.4 L 53.400000000000006 208.4 L 52.6 208.4 L 52 208.4 L 51.400000000000006 208.4 L 50.800000000000004 208.4 L 50 208.4 L 49.400000000000006 208.4 L 48.800000000000004 208.4 L 48.2 208.4 L 47.400000000000006 208.4 L 46.800000000000004 208.4 L 46.2 208.4 L 45.6 208.4 L 44.800000000000004 208.4 L 44.2 208.4 L 43.6 208.4 L 43 208.4 L 42.400000000000006 208.4 L 41.6 208.4 L 41 208.4 L 40.400000000000006 208.4 L 39.800000000000004 208.4 L 39 208.4 L 38.400000000000006 208.4 L 37.800000000000004 208.4 L 37.2 208.4 L 36.4 208.4 L 35.800000000000004 208.4 L 35.2 208.4 L 34.6 208.4 L 33.800000000000004 208.4 L 33.2 208.4 L 32.6 208.4 L 32 208.4 L 31.200000000000003 208.4 L 30.6 208.4 L 30 208.4 L 29.400000000000002 208.4 L 28.8 208.4 L 28 208.4 L 27.400000000000002 208.4 L 26.8 208.4 L 26.200000000000003 208.4 L 25.400000000000002 208.4 L 24.8 208.4 L 24.200000000000003 208.4 L 23.6 208.4 L 22.8 208.4 L 22.200000000000003 208.4 L 21.6 208.4 L 21 208.4 L 20.200000000000003 208.4 L 19.6 208.4 L 19 208.4 L 18.400000000000002 208.4 L 17.6 208.4 L 17 208.4 L 16.400000000000002 208.4 L 15.8 208.4 L 15 208.4 L 14.4 208.4 L 13.8 208.4 L 13.200000000000001 208.4 L 12.600000000000001 208.4 L 11.8 208.4 L 11.200000000000001 208.4 L 10.600000000000001 208.4 L 10 208.4 L 9.200000000000001 208.4 L 8.6 208.4 L 8 208.4 L 7.4 208.4 L 6.6000000000000005 208.4 L 6 208.4 L 5.4 208.4 L 4.800000000000001 208.4 L 4 208.4 L 3.4000000000000004 208.4 L 2.8000000000000003 208.4 L 2.2 208.4 L 1.4000000000000001 208.4 L 0.8 208.4 L 0.2 208.4 L 0 208.4 "/></g><circle fill="black" r="3" display="none"/><g/><rect fill="white"/><text/></g></g><g><g clip-path="url(#_clipplot65a7af12-75be-4045-ab4c-aa7bafaec1ac)"><rect data-label-i="0" display="initial"/><text data-label-i="0" display="initial"/></g><g clip-path="url(#_clipplot65a7af12-75be-4045-ab4c-aa7bafaec1ac)"><rect data-label-i="0" display="initial"/><text data-label-i="0" display="initial"/></g><g clip-path="url(#_clipplot65a7af12-75be-4045-ab4c-aa7bafaec1ac)"><rect data-label-i="0" display="initial"/><text data-label-i="0" display="initial"/></g><g clip-path="url(#_clipplot65a7af12-75be-4045-ab4c-aa7bafaec1ac)"><rect data-label-i="0" display="initial"/><text data-label-i="0" display="initial"/></g><g clip-path="url(#_clipplot65a7af12-75be-4045-ab4c-aa7bafaec1ac)"><rect fill="green" stroke="red" stroke-width="1px" width="494.6364231990997" height="5" x="212.277990774591" y="0"/><rect data-label-i="0" display="initial" x="456.2628479003906" y="11" width="6.666666507720947" height="13" fill="transparent" fill-opacity="1"/><text data-label-i="0" display="initial" x="459.59620237414083" y="20" dominant-baseline="no-change" fill="red" font-size="11pxpx" text-anchor="middle" stroke="black" stroke-width="0px" stroke-location="outside">3</text></g><g clip-path="url(#_clipplot65a7af12-75be-4045-ab4c-aa7bafaec1ac)"><rect fill="green" stroke="red" stroke-width="1px" width="494.6364231990992" height="5" x="-8817.776701050027" y="0"/><rect data-label-i="0" display="initial" x="-8573.791015625" y="11" width="6.666666507720947" height="13" fill="transparent" fill-opacity="1"/><text data-label-i="0" display="initial" x="-8570.458489450477" y="20" dominant-baseline="no-change" fill="red" font-size="11pxpx" text-anchor="middle" stroke="black" stroke-width="0px" stroke-location="outside">2</text></g></g></g></g><line stroke="black" shape-rendering="crispEdges" stroke-linecap="square" display="none"/><line stroke="black" shape-rendering="crispEdges" stroke-linecap="square" display="none"/><line stroke="black" shape-rendering="crispEdges" stroke-linecap="square" display="none"/><line stroke="black" shape-rendering="crispEdges" stroke-linecap="square" display="none"/></g><g><rect display="none" fill="rgba(171,12,12,0.2)" stroke="rgba(171,12,12,1)" shape-rendering="crispEdges" x="300.2166748046875" y="30" height="217.92432403564453" width="278" pointer-events="none"/></g></g><g display="block" transform="translate(384, 289.92432403564453)"><rect x="-5" y="-6" stroke="rgba( 100, 100, 100, 0.5 )" stroke-width="1px" rx="0" ry="0" fill="rgba( 255, 255, 255, 0.8 )" width="170.5500030517578" height="35.07567596435547"/><symbol id="366c7b71-d194-4a69-84d6-009e0e804510" viewBox="0 -256 1850 1850"><rect pointer-events="fill" x="-256" y="0" fill="transparent" width="2106" height="1850"/><g transform="matrix(1,0,0,-1,30.372881,1259.8983)"><path d="m 1664,576 q -152,236 -381,353 61,-104 61,-225 0,-185 -131.5,-316.5 Q 1081,256 896,256 711,256 579.5,387.5 448,519 448,704 448,825 509,929 280,812 128,576 261,371 461.5,249.5 662,128 896,128 1130,128 1330.5,249.5 1531,371 1664,576 z M 944,960 q 0,20 -14,34 -14,14 -34,14 -125,0 -214.5,-89.5 Q 592,829 592,704 q 0,-20 14,-34 14,-14 34,-14 20,0 34,14 14,14 14,34 0,86 61,147 61,61 147,61 20,0 34,14 14,14 14,34 z m 848,-384 q 0,-34 -20,-69 Q 1632,277 1395.5,138.5 1159,0 896,0 633,0 396.5,139 160,278 20,507 0,542 0,576 q 0,34 20,69 140,229 376.5,368 236.5,139 499.5,139 263,0 499.5,-139 236.5,-139 376.5,-368 20,-35 20,-69 z" fill="#444444"/></g></symbol><symbol id="dbf55820-7de7-456b-b317-5a75a810ccd7" viewBox="0 -256 1850 1850"><rect pointer-events="fill" fill="transparent" x="-256" y="0" width="2106" height="1850"/><g transform="matrix(1,0,0,-1,30.372881,1214.339)"><path d="m 555,201 78,141 q -87,63 -136,159 -49,96 -49,203 0,121 61,225 Q 280,812 128,576 295,318 555,201 z m 389,759 q 0,20 -14,34 -14,14 -34,14 -125,0 -214.5,-89.5 Q 592,829 592,704 q 0,-20 14,-34 14,-14 34,-14 20,0 34,14 14,14 14,34 0,86 61,147 61,61 147,61 20,0 34,14 14,14 14,34 z m 363,191 q 0,-7 -1,-9 Q 1201,954 991,576 781,198 675,9 l -49,-89 q -10,-16 -28,-16 -12,0 -134,70 -16,10 -16,28 0,12 44,87 Q 349,154 228.5,262 108,370 20,507 0,538 0,576 q 0,38 20,69 153,235 380,371 227,136 496,136 89,0 180,-17 l 54,97 q 10,16 28,16 5,0 18,-6 13,-6 31,-15.5 18,-9.5 33,-18.5 15,-9 31.5,-18.5 16.5,-9.5 19.5,-11.5 16,-10 16,-27 z m 37,-447 Q 1344,565 1265,450.5 1186,336 1056,286 l 280,502 q 8,-45 8,-84 z m 448,-128 q 0,-35 -20,-69 Q 1733,443 1663,362 1513,190 1315.5,95 1118,0 896,0 l 74,132 q 212,18 392.5,137 180.5,119 301.5,307 -115,179 -282,294 l 63,112 q 95,-64 182.5,-153 87.5,-89 144.5,-184 20,-34 20,-69 z" fill="#c0c0c0"/></g></symbol><g><g transform="translate( 0, 10)"><rect x="5" y="-6" width="150.5500030517578" height="15.075675964355469" fill="none" pointer-events="fill"/><g><line stroke="rgba(0,0,0,1)" stroke-width="1" fill="none" x1="5" x2="25" y1="0" y2="0" cursor="pointer"/></g><use xlink:href="#366c7b71-d194-4a69-84d6-009e0e804510" width="15" height="15" x="35" y="-8"/><text cursor="pointer" transform="translate(55, 3)" fill="black">predictedSpectrum</text></g></g><rect x="0" y="0" width="170.5500030517578" height="35.07567596435547" fill="none" pointer-events="fill" display="none"/></g></svg>