<?xml version="1.0" standalone="no"?><!DOCTYPE svg PUBLIC "-//W3C//DTD SVG 1.1//EN" "http://www.w3.org/Graphics/SVG/1.1/DTD/svg11.dtd"><svg xmlns:xlink="http://www.w3.org/1999/xlink" xmlns="http://www.w3.org/2000/svg" font-family="Myriad Pro, Helvetica, Arial" font-size="12" data-jsgraph-version="v2.2.36" tabindex="0" width="940" height="325"><defs><clipPath id="_clipplot9d8e1cc4-249c-4b4e-915d-689630734926" clipPathUnits="userSpaceOnUse"><rect y="0" x="0" width="900" height="217.92432403564453"/></clipPath><marker xmlns="" viewBox="0 0 10 10" id="arrow9d8e1cc4-249c-4b4e-915d-689630734926" refX="6" refY="5" markerUnits="strokeWidth" markerWidth="8" markerHeight="6" orient="auto"><path xmlns="http://www.w3.org/2000/svg" d="M 0 0 L 10 5 L 0 10 z"/></marker><marker viewBox="0 0 6 8" id="horionzalsplit_9d8e1cc4-249c-4b4e-915d-689630734926" refX="3" refY="4" markerUnits="strokeWidth" markerWidth="6" markerHeight="8"><line x1="0" y1="8" x2="6" y2="0" stroke="black"/></marker><marker viewBox="0 0 8 6" id="verticalsplit_9d8e1cc4-249c-4b4e-915d-689630734926" refX="4" refY="3" markerUnits="strokeWidth" markerWidth="8" markerHeight="6"><line x1="0" y1="0" x2="8" y2="6" stroke="black"/></marker><marker viewBox="0 0 10 10" id="verticalline9d8e1cc4-249c-4b4e-915d-689630734926" refX="0" refY="5" markerUnits="strokeWidth" markerWidth="20" markerHeight="10" orient="auto" stroke-width="1px"><path d="M 0 -10 L 0 10" stroke="black"/></marker></defs><g><rect pointer-events="fill" fill="transparent" y="30" x="20" width="900" height="217.92432403564453"/><text text-anchor="middle" y="20" x="470"/><g transform="translate(20, 30)"><g><g><g><path shape-rendering="crispEdges" stroke="#F0F0F0" stroke-width="1" stroke-opacity="undefined" clip-path="url(#_clipplot9d8e1cc4-249c-4b4e-915d-689630734926)" d="M 895.5002377037729 0 L 895.5002377037729 249.92432403564453M 876.4324410936039 0 L 876.4324410936039 249.92432403564453M 857.3646444834347 0 L 857.3646444834347 249.92432403564453M 819.2290512630933 0 L 819.2290512630933 249.92432403564453M 800.1612546529242 0 L 800.1612546529242 249.92432403564453M 781.0934580427552 0 L 781.0934580427552 249.92432403564453M 762.025661432586 0 L 762.025661432586 249.92432403564453M 742.9578648224169 0 L 742.9578648224169 249.92432403564453M 723.8900682122479 0 L 723.8900682122479 249.92432403564453M 704.8222716020789 0 L 704.8222716020789 249.92432403564453M 685.7544749919098 0 L 685.7544749919098 249.92432403564453M 666.6866783817408 0 L 666.6866783817408 249.92432403564453M 628.5510851613992 0 L 628.5510851613992 249.92432403564453M 609.4832885512301 0 L 609.4832885512301 249.92432403564453M 590.4154919410611 0 L 590.4154919410611 249.92432403564453M 571.3476953308921 0 L 571.3476953308921 249.92432403564453M 552.2798987207229 0 L 552.2798987207229 249.92432403564453M 533.2121021105538 0 L 533.2121021105538 249.92432403564453M 514.1443055003848 0 L 514.1443055003848 249.92432403564453M 495.0765088902157 0 L 495.0765088902157 249.92432403564453M 476.00871228004667 0 L 476.00871228004667 249.92432403564453M 437.87311905970506 0 L 437.87311905970506 249.92432403564453M 418.80532244953605 0 L 418.80532244953605 249.92432403564453M 399.737525839367 0 L 399.737525839367 249.92432403564453M 380.66972922919797 0 L 380.66972922919797 249.92432403564453M 361.60193261902884 0 L 361.60193261902884 249.92432403564453M 342.53413600885983 0 L 342.53413600885983 249.92432403564453M 323.4663393986907 0 L 323.4663393986907 249.92432403564453M 304.3985427885217 0 L 304.3985427885217 249.92432403564453M 285.33074617835257 0 L 285.33074617835257 249.92432403564453M 247.19515295801102 0 L 247.19515295801102 249.92432403564453M 228.127356347842 0 L 228.127356347842 249.92432403564453M 209.05955973767288 0 L 209.05955973767288 249.92432403564453M 189.99176312750387 0 L 189.99176312750387 249.92432403564453M 170.92396651733486 0 L 170.92396651733486 249.92432403564453M 151.85616990716562 0 L 151.85616990716562 249.92432403564453M 132.7883732969966 0 L 132.7883732969966 249.92432403564453M 113.7205766868276 0 L 113.7205766868276 249.92432403564453M 94.65278007665859 0 L 94.65278007665859 249.92432403564453M 56.517186856316926 0 L 56.517186856316926 249.92432403564453M 37.449390246147914 0 L 37.449390246147914 249.92432403564453M 18.381593635978902 0 L 18.381593635978902 249.92432403564453"/><path shape-rendering="crispEdges" stroke="#F0F0F0" stroke-width="1" stroke-opacity="undefined" clip-path="url(#_clipplot9d8e1cc4-249c-4b4e-915d-689630734926)"/></g><g><path shape-rendering="crispEdges" stroke="#DADADA" stroke-width="1" stroke-opacity="undefined" clip-path="url(#_clipplot9d8e1cc4-249c-4b4e-915d-689630734926)" d="M 838.2968478732623 0 L 838.2968478732623 249.92432403564453M 647.6188817715683 0 L 647.6188817715683 249.92432403564453M 456.9409156698742 0 L 456.9409156698742 249.92432403564453M 266.26294956818015 0 L 266.26294956818015 249.92432403564453M 75.58498346648616 0 L 75.58498346648616 249.92432403564453"/><path shape-rendering="crispEdges" stroke="#DADADA" stroke-width="1" stroke-opacity="undefined" clip-path="url(#_clipplot9d8e1cc4-249c-4b4e-915d-689630734926)"/></g></g><g transform="translate(0 217.92432403564453)"><rect pointer-events="fill" fill="transparent"/><g><line y1="0" y2="-2" stroke="black" display="visible" x1="895.5002377037729" x2="895.5002377037729"/><line y1="0" y2="-2" stroke="black" display="visible" x1="876.4324410936039" x2="876.4324410936039"/><line y1="0" y2="-2" stroke="black" display="visible" x1="857.3646444834347" x2="857.3646444834347"/><line y1="0" y2="-2" stroke="black" display="visible" x1="819.2290512630933" x2="819.2290512630933"/><line y1="0" y2="-4" stroke="black" display="visible" x1="742.9578648224169" x2="742.9578648224169"/><line y1="0" y2="-2" stroke="black" display="visible" x1="800.1612546529242" x2="800.1612546529242"/><line y1="0" y2="-2" stroke="black" display="visible" x1="781.0934580427552" x2="781.0934580427552"/><line y1="0" y2="-2" stroke="black" display="visible" x1="762.025661432586" x2="762.025661432586"/><line y1="0" y2="-2" stroke="black" display="visible" x1="723.8900682122479" x2="723.8900682122479"/><line y1="0" y2="-6" stroke="black" display="visible" x1="838.2968478732623" x2="838.2968478732623"/><line y1="0" y2="-2" stroke="black" display="visible" x1="704.8222716020789" x2="704.8222716020789"/><line y1="0" y2="-2" stroke="black" display="visible" x1="685.7544749919098" x2="685.7544749919098"/><line y1="0" y2="-2" stroke="black" display="visible" x1="666.6866783817408" x2="666.6866783817408"/><line y1="0" y2="-2" stroke="black" display="visible" x1="628.5510851613992" x2="628.5510851613992"/><line y1="0" y2="-4" stroke="black" display="visible" x1="552.2798987207229" x2="552.2798987207229"/><line y1="0" y2="-2" stroke="black" display="visible" x1="609.4832885512301" x2="609.4832885512301"/><line y1="0" y2="-2" stroke="black" display="visible" x1="590.4154919410611" x2="590.4154919410611"/><line y1="0" y2="-2" stroke="black" display="visible" x1="571.3476953308921" x2="571.3476953308921"/><line y1="0" y2="-2" stroke="black" display="visible" x1="533.2121021105538" x2="533.2121021105538"/><line y1="0" y2="-6" stroke="black" display="visible" x1="647.6188817715683" x2="647.6188817715683"/><line y1="0" y2="-2" stroke="black" display="visible" x1="514.1443055003848" x2="514.1443055003848"/><line y1="0" y2="-2" stroke="black" display="visible" x1="495.0765088902157" x2="495.0765088902157"/><line y1="0" y2="-2" stroke="black" display="visible" x1="476.00871228004667" x2="476.00871228004667"/><line y1="0" y2="-2" stroke="black" display="visible" x1="437.87311905970506" x2="437.87311905970506"/><line y1="0" y2="-4" stroke="black" display="visible" x1="361.60193261902884" x2="361.60193261902884"/><line y1="0" y2="-2" stroke="black" display="visible" x1="418.80532244953605" x2="418.80532244953605"/><line y1="0" y2="-2" stroke="black" display="visible" x1="399.737525839367" x2="399.737525839367"/><line y1="0" y2="-2" stroke="black" display="visible" x1="380.66972922919797" x2="380.66972922919797"/><line y1="0" y2="-2" stroke="black" display="visible" x1="342.53413600885983" x2="342.53413600885983"/><line y1="0" y2="-6" stroke="black" display="visible" x1="456.9409156698742" x2="456.9409156698742"/><line y1="0" y2="-2" stroke="black" display="visible" x1="323.4663393986907" x2="323.4663393986907"/><line y1="0" y2="-2" stroke="black" display="visible" x1="304.3985427885217" x2="304.3985427885217"/><line y1="0" y2="-2" stroke="black" display="visible" x1="285.33074617835257" x2="285.33074617835257"/><line y1="0" y2="-2" stroke="black" display="visible" x1="247.19515295801102" x2="247.19515295801102"/><line y1="0" y2="-4" stroke="black" display="visible" x1="170.92396651733486" x2="170.92396651733486"/><line y1="0" y2="-2" stroke="black" display="visible" x1="228.127356347842" x2="228.127356347842"/><line y1="0" y2="-2" stroke="black" display="visible" x1="209.05955973767288" x2="209.05955973767288"/><line y1="0" y2="-2" stroke="black" display="visible" x1="189.99176312750387" x2="189.99176312750387"/><line y1="0" y2="-2" stroke="black" display="visible" x1="151.85616990716562" x2="151.85616990716562"/><line y1="0" y2="-6" stroke="black" display="visible" x1="266.26294956818015" x2="266.26294956818015"/><line y1="0" y2="-2" stroke="black" display="visible" x1="132.7883732969966" x2="132.7883732969966"/><line y1="0" y2="-2" stroke="black" display="visible" x1="113.7205766868276" x2="113.7205766868276"/><line y1="0" y2="-2" stroke="black" display="visible" x1="94.65278007665859" x2="94.65278007665859"/><line y1="0" y2="-2" stroke="black" display="visible" x1="56.517186856316926" x2="56.517186856316926"/><line y1="0" y2="-4" stroke="black" display="none" x1="288.1779040320438" x2="288.1779040320438"/><line y1="0" y2="-2" stroke="black" display="visible" x1="37.449390246147914" x2="37.449390246147914"/><line y1="0" y2="-2" stroke="black" display="visible" x1="18.381593635978902" x2="18.381593635978902"/><line y1="0" y2="-2" stroke="black" display="none" x1="246.9914633540776" x2="246.9914633540776"/><line y1="0" y2="-2" stroke="black" display="none" x1="233.2626497947556" x2="233.2626497947556"/><line y1="0" y2="-6" stroke="black" display="visible" x1="75.58498346648616" x2="75.58498346648616"/><line y1="0" y2="-6" stroke="black" display="none" x1="82.24570064221314" x2="82.24570064221314"/><line y1="0" y2="-2" stroke="black" display="none" x1="205.80502267611155" x2="205.80502267611155"/><line y1="0" y2="-2" stroke="black" display="none" x1="192.0762091167894" x2="192.0762091167894"/><line y1="0" y2="-2" stroke="black" display="none" x1="178.3473955574674" x2="178.3473955574674"/><line y1="0" y2="-2" stroke="black" display="none" x1="164.61858199814537" x2="164.61858199814537"/><line y1="0" y2="-4" stroke="black" display="none" x1="150.88976843882324" x2="150.88976843882324"/><line y1="0" y2="-2" stroke="black" display="none" x1="137.16095487950122" x2="137.16095487950122"/><line y1="0" y2="-2" stroke="black" display="none" x1="123.4321413201792" x2="123.4321413201792"/><line y1="0" y2="-2" stroke="black" display="none" x1="109.70332776085706" x2="109.70332776085706"/><line y1="0" y2="-2" stroke="black" display="none" x1="95.97451420153504" x2="95.97451420153504"/><line y1="0" y2="-2" stroke="black" display="none" x1="68.516887082891" x2="68.516887082891"/><line y1="0" y2="-2" stroke="black" display="none" x1="54.78807352356898" x2="54.78807352356898"/><line y1="0" y2="-2" stroke="black" display="none" x1="41.05925996424696" x2="41.05925996424696"/><line y1="0" y2="-2" stroke="black" display="none" x1="27.330446404924828" x2="27.330446404924828"/><line y1="0" y2="-4" stroke="black" display="none" x1="13.601632845602808" x2="13.601632845602808"/></g><g><text y="8" text-anchor="middle" style="dominant-baseline: hanging;" display="visible" x="838.2968478732623">3.20</text><text y="8" text-anchor="middle" style="dominant-baseline: hanging;" display="visible" x="647.6188817715683">3.25</text><text y="8" text-anchor="middle" style="dominant-baseline: hanging;" display="visible" x="456.9409156698742">3.30</text><text y="8" text-anchor="middle" style="dominant-baseline: hanging;" display="visible" x="266.26294956818015">3.35</text><text y="8" text-anchor="middle" style="dominant-baseline: hanging;" display="visible" x="75.58498346648616">3.40</text><text y="8" text-anchor="middle" style="dominant-baseline: hanging;" display="none" x="82.24570064221314">3.8</text></g><line stroke="black" shape-rendering="crispEdges" stroke-linecap="square" display="block" x1="900" x2="0" y1="0" y2="0" marker-start="" marker-end=""/><text text-anchor="middle" fill="undefined" style="display: initial;" x="450" y="22"><tspan style="dominant-baseline: hanging;">δ (ppm)</tspan><tspan display="none" style="dominant-baseline: hanging;"/><tspan dx="6" display="none" style="dominant-baseline: hanging;"/><tspan dy="-5" font-size="0.8em" display="none" style="dominant-baseline: hanging;"/></text><g/></g><g display="none"><rect pointer-events="fill" fill="transparent"/><g/><g/><line stroke="black" shape-rendering="crispEdges" stroke-linecap="square" display="none" y1="217.92432403564453" y2="0" x1="0" x2="0" marker-start="" marker-end=""/><text text-anchor="middle"><tspan/><tspan/><tspan dx="6"/><tspan dy="-5" font-size="0.8em"/></text><g/></g></g><g><g data-layer="1"><g><g><g/><g><path stroke="rgba(0,0,0,1)" stroke-width="1" fill="none" d=""/><path stroke="rgba(0,0,0,1)" stroke-width="1" fill="none" d="M 899.8000000000001 208.4 L 899.4000000000001 208.4 L 898.8000000000001 208.4 L 898.2 208.4 L 897.6 208.4 L 897 208.4 L 896.6 208.4 L 896 208.4 L 895.4000000000001 208.4 L 894.8000000000001 208.4 L 894.2 208.4 L 893.6 208.4 L 893 208.4 L 892.4000000000001 208.4 L 891.8000000000001 208.4 L 891.2 208.4 L 890.6 208.4 L 890.2 208.4 L 889.6 208.4 L 889 208.4 L 888.4000000000001 208.4 L 887.8000000000001 208.4 L 887.2 208.4 L 886.6 208.4 L 886 208.4 L 885.4000000000001 208.4 L 884.8000000000001 208.4 L 884.2 208.4 L 883.8000000000001 208.4 L 883.2 208.4 L 882.6 208.4 L 882 208.4 L 881.4000000000001 208.4 L 880.8000000000001 208.4 L 880.2 208.4 L 879.6 208.4 L 879 208.4 L 878.4000000000001 208.4 L 877.8000000000001 208.4 L 877.4000000000001 208.4 L 876.8000000000001 208.4 L 876.2 208.4 L 875.6 208.4 L 875 208.4 L 874.4000000000001 208.4 L 873.8000000000001 208.4 L 873.2 208.4 L 872.6 208.4 L 872 208.4 L 871.4000000000001 208.4 L 871 208.4 L 870.4000000000001 208.4 L 869.8000000000001 208.4 L 869.2 208.4 L 868.6 208.4 L 868 208.4 L 867.4000000000001 208.4 L 866.8000000000001 208.4 L 866.2 208.4 L 865.6 208.4 L 865 208.4 L 864.4000000000001 208.4 L 864 208.4 L 863.4000000000001 208.4 L 862.8000000000001 208.4 L 862.2 208.4 L 861.6 208.4 L 861 208.4 L 860.4000000000001 208.4 L 859.8000000000001 208.4 L 859.2 208.4 L 858.6 208.4 L 858 208.4 L 857.6 208.4 L 857 208.4 L 856.4000000000001 208.4 L 855.8000000000001 208.4 L 855.2 208.4 L 854.6 208.4 L 854 208.4 L 853.4000000000001 208.4 L 852.8000000000001 208.4 L 852.2 208.4 L 851.6 208.4 L 851.2 208.4 L 850.6 208.4 L 850 208.4 L 849.4000000000001 208.4 L 848.8000000000001 208.4 L 848.2 208.4 L 847.6 208.4 L 847 208.4 L 846.4000000000001 208.4 L 845.8000000000001 208.4 L 845.2 208.4 L 844.8000000000001 208.4 L 844.2 208.4 L 843.6 208.4 L 843 208.4 L 842.4000000000001 208.4 L 841.8000000000001 208.4 L 841.2 208.4 L 840.6 208.4 L 840 208.4 L 839.4000000000001 208.4 L 838.8000000000001 208.4 L 838.4000000000001 208.4 L 837.8000000000001 208.4 L 837.2 208.4 L 836.6 208.4 L 836 208.4 L 835.4000000000001 208.4 L 834.8000000000001 208.4 L 834.2 208.4 L 833.6 208.4 L 833 208.4 L 832.4000000000001 208.4 L 832 208.4 L 831.4000000000001 208.4 L 830.8000000000001 208.4 L 830.2 208.4 L 829.6 208.4 L 829 208.4 L 828.4000000000001 208.4 L 827.8000000000001 208.4 L 827.2 208.4 L 826.6 208.4 L 826 208.4 L 825.6 208.4 L 825 208.4 L 824.4000000000001 208.4 L 823.8000000000001 208.4 L 823.2 208.4 L 822.6 208.4 L 822 208.4 L 821.4000000000001 208.4 L 820.8000000000001 208.4 L 820.2 208.4 L 819.6 208.4 L 819.2 208.4 L 818.6 208.4 L 818 208.4 L 817.4000000000001 208.4 L 816.8000000000001 208.4 L 816.2 208.4 L 815.6 208.4 L 815 208.4 L 814.4000000000001 208.4 L 813.8000000000001 208.4 L 813.2 208.4 L 812.8000000000001 208.4 L 812.2 208.4 L 811.6 208.4 L 811 208.4 L 810.4000000000001 208.4 L 809.8000000000001 208.4 L 809.2 208.4 L 808.6 208.4 L 808 208.4 L 807.4000000000001 208.4 L 806.8000000000001 208.4 L 806.4000000000001 208.4 L 805.8000000000001 208.4 L 805.2 208.4 L 804.6 208.4 L 804 208.4 L 803.4000000000001 208.4 L 802.8000000000001 208.4 L 802.2 208.4 L 801.6 208.4 L 801 208.4 L 800.4000000000001 208.4 L 800 208.4 L 799.4000000000001 208.4 L 798.8000000000001 208.4 L 798.2 208.4 L 797.6 208.4 L 797 208.4 L 796.4000000000001 208.4 L 795.8000000000001 208.4 L 795.2 208.4 L 794.6 208.4 L 794 208.4 L 793.6 208.4 L 793 208.4 L 792.4000000000001 208.4 L 791.8000000000001 208.4 L 791.2 208.4 L 790.6 208.4 L 790 208.4 L 789.4000000000001 208.4 L 788.8000000000001 208.4 L 788.2 208.4 L 787.6 208.4 L 787.2 208.4 L 786.6 208.4 L 786 208.4 L 785.4000000000001 208.4 L 784.8000000000001 208.4 L 784.2 208.4 L 783.6 208.4 L 783 208.4 L 782.4000000000001 208.4 L 781.8000000000001 208.4 L 781.2 208.4 L 780.8000000000001 208.4 L 780.2 208.4 L 779.6 208.4 L 779 208.4 L 778.4000000000001 208.4 L 777.8000000000001 208.4 L 777.2 208.4 L 776.6 208.4 L 776 208.4 L 775.4000000000001 208.4 L 774.8000000000001 208.4 L 774.4000000000001 208.4 L 773.8000000000001 208.4 L 773.2 208.4 L 772.6 208.4 L 772 208.4 L 771.4000000000001 208.4 L 770.8000000000001 208.4 L 770.2 208.4 L 769.6 208.4 L 769 208.4 L 768.4000000000001 208.4 L 768 208.4 L 767.4000000000001 208.4 L 766.8000000000001 208.4 L 766.2 208.4 L 765.6 208.4 L 765 208.4 L 764.4000000000001 208.4 L 763.8000000000001 208.4 L 763.2 208.4 L 762.6 208.4 L 762 208.4 L 761.6 208.4 L 761 208.4 L 760.4000000000001 208.4 L 759.8000000000001 208.4 L 759.2 208.4 L 758.6 208.4 L 758 208.4 L 757.4000000000001 208.4 L 756.8000000000001 208.4 L 756.2 208.4 L 755.6 208.4 L 755 208.4 L 754.6 208.4 L 754 208.4 L 753.4000000000001 208.4 L 752.8000000000001 208.4 L 752.2 208.4 L 751.6 208.4 L 751 208.4 L 750.4000000000001 208.4 L 749.8000000000001 208.4 L 749.2 208.4 L 748.6 208.4 L 748.2 208.4 L 747.6 208.4 L 747 208.4 L 746.4000000000001 208.4 L 745.8000000000001 208.4 L 745.2 208.4 L 744.6 208.4 L 744 208.4 L 743.4000000000001 208.4 L 742.8000000000001 208.4 L 742.2 208.4 L 741.8000000000001 208.4 L 741.2 208.4 L 740.6 208.4 L 740 208.4 L 739.4000000000001 208.4 L 738.8000000000001 208.4 L 738.2 208.4 L 737.6 208.4 L 737 208.4 L 736.4000000000001 208.4 L 735.8000000000001 208.4 L 735.4000000000001 208.4 L 734.8000000000001 208.4 L 734.2 208.4 L 733.6 208.4 L 733 208.4 L 732.4000000000001 208.4 L 731.8000000000001 208.4 L 731.2 208.4 L 730.6 208.4 L 730 208.4 L 729.4000000000001 208.4 L 729 208.4 L 728.4000000000001 208.4 L 727.8000000000001 208.4 L 727.2 208.4 L 726.6 208.4 L 726 208.4 L 725.4000000000001 208.4 L 724.8000000000001 208.4 L 724.2 208.4 L 723.6 208.4 L 723 208.4 L 722.6 208.4 L 722 208.4 L 721.4000000000001 208.4 L 720.8000000000001 208.4 L 720.2 208.4 L 719.6 208.4 L 719 208.4 L 718.4000000000001 208.4 L 717.8000000000001 208.4 L 717.2 208.4 L 716.6 208.4 L 716.2 208.4 L 715.6 208.4 L 715 208.4 L 714.4000000000001 208.4 L 713.8000000000001 208.4 L 713.2 208.4 L 712.6 208.4 L 712 208.4 L 711.4000000000001 208.4 L 710.8000000000001 208.4 L 710.2 208.4 L 709.8000000000001 208.4 L 709.2 208.4 L 708.6 208.4 L 708 208.4 L 707.4000000000001 208.4 L 706.8000000000001 208.4 L 706.2 208.4 L 705.6 208.4 L 705 208.4 L 704.4000000000001 208.4 L 703.8000000000001 208.4 L 703.4000000000001 208.4 L 702.8000000000001 208.4 L 702.2 208.4 L 701.6 208.4 L 701 208.4 L 700.4000000000001 208.4 L 699.8000000000001 208.4 L 699.2 208.4 L 698.6 208.4 L 698 208.4 L 697.4000000000001 208.4 L 697 208.4 L 696.4000000000001 208.4 L 695.8000000000001 208.4 L 695.2 208.4 L 694.6 208.4 L 694 208.4 L 693.4000000000001 208.4 L 692.8000000000001 208.4 L 692.2 208.4 L 691.6 208.4 L 691 208.4 L 690.6 208.4 L 690 208.4 L 689.4000000000001 208.4 L 688.8000000000001 208.4 L 688.2 208.4 L 687.6 208.4 L 687 208.4 L 686.4000000000001 208.4 L 685.8000000000001 208.4 L 685.2 208.4 L 684.6 208.4 L 684.2 208.4 L 683.6 208.4 L 683 208.4 L 682.4000000000001 208.4 L 681.8000000000001 208.4 L 681.2 208.4 L 680.6 208.4 L 680 208.4 L 679.4000000000001 208.4 L 678.8000000000001 208.4 L 678.2 208.4 L 677.8000000000001 208.4 L 677.2 208.4 L 676.6 208.4 L 676 208.4 L 675.4000000000001 208.4 L 674.8000000000001 208.4 L 674.2 208.4 L 673.6 208.4 L 673 208.4 L 672.4000000000001 208.4 L 671.8000000000001 208.4 L 671.4000000000001 208.4 L 670.8000000000001 208.4 L 670.2 208.4 L 669.6 208.4 L 669 208.4 L 668.4000000000001 208.4 L 667.8000000000001 208.4 L 667.2 208.4 L 666.6 208.4 L 666 208.4 L 665.4000000000001 208.4 L 665 208.4 L 664.4000000000001 208.4 L 663.8000000000001 208.4 L 663.2 208.4 L 662.6 208.4 L 662 208.4 L 661.4000000000001 208.4 L 660.8000000000001 208.4 L 660.2 208.4 L 659.6 208.4 L 659 208.4 L 658.6 208.4 L 658 208.4 L 657.4000000000001 208.4 L 656.8000000000001 208.4 L 656.2 208.4 L 655.6 208.4 L 655 208.4 L 654.4000000000001 208.4 L 653.8000000000001 208.4 L 653.2 208.4 L 652.6 208.4 L 652.2 208.4 L 651.6 208.4 L 651 208.4 L 650.4000000000001 208.4 L 649.8000000000001 208.4 L 649.2 208.4 L 648.6 208.4 L 648 208.4 L 647.4000000000001 208.4 L 646.8000000000001 208.4 L 646.2 208.4 L 645.8000000000001 208.4 L 645.2 208.4 L 644.6 208.4 L 644 208.4 L 643.4000000000001 208.4 L 642.8000000000001 208.4 L 642.2 208.4 L 641.6 208.4 L 641 208.4 L 640.4000000000001 208.4 L 639.8000000000001 208.4 L 639.2 208.4 L 638.8000000000001 208.4 L 638.2 208.4 L 637.6 208.4 L 637 208.4 L 636.4000000000001 208.4 L 635.8000000000001 208.4 L 635.2 208.4 L 634.6 208.4 L 634 208.4 L 633.4000000000001 208.4 L 632.8000000000001 208.4 L 632.4000000000001 208.4 L 631.8000000000001 208.4 L 631.2 208.4 L 630.6 208.4 L 630 208.4 L 629.4000000000001 208.4 L 628.8000000000001 208.4 L 628.2 208.4 L 627.6 208.4 L 627 208.4 L 626.4000000000001 208.4 L 626 208.4 L 625.4000000000001 208.4 L 624.8000000000001 208.4 L 624.2 208.4 L 623.6 208.4 L 623 208.4 L 622.4000000000001 208.4 L 621.8000000000001 208.4 L 621.2 208.4 L 620.6 208.4 L 620 208.4 L 619.6 208.4 L 619 208.4 L 618.4000000000001 208.4 L 617.8000000000001 208.4 L 617.2 208.4 L 616.6 208.4 L 616 208.4 L 615.4000000000001 208.4 L 614.8000000000001 208.4 L 614.2 208.4 L 613.6 208.4 L 613.2 208.4 L 612.6 208.4 L 612 208.4 L 611.4 208.4 L 610.8000000000001 208.4 L 610.2 208.4 L 609.6 208.4 L 609 208.4 L 608.4 208.4 L 607.8000000000001 208.4 L 607.2 208.4 L 606.8000000000001 208.4 L 606.2 208.4 L 605.6 208.4 L 605 208.4 L 604.4 208.4 L 603.8000000000001 208.4 L 603.2 208.4 L 602.6 208.4 L 602 208.4 L 601.4 208.4 L 600.8000000000001 208.4 L 600.4 208.4 L 599.8000000000001 208.4 L 599.2 208.4 L 598.6 208.4 L 598 208.4 L 597.4 208.4 L 596.8000000000001 208.4 L 596.2 208.4 L 595.6 208.4 L 595 208.4 L 594.4 208.4 L 594 208.4 L 593.4 208.4 L 592.8000000000001 208.4 L 592.2 208.4 L 591.6 208.4 L 591 208.4 L 590.4 208.4 L 589.8000000000001 208.4 L 589.2 208.4 L 588.6 208.4 L 588 208.4 L 587.6 208.4 L 587 208.4 L 586.4 208.4 L 585.8000000000001 208.4 L 585.2 208.4 L 584.6 208.4 L 584 208.4 L 583.4 208.4 L 582.8000000000001 208.4 L 582.2 208.4 L 581.6 208.4 L 581.2 208.4 L 580.6 208.4 L 580 208.4 L 579.4 208.4 L 578.8000000000001 208.4 L 578.2 208.4 L 577.6 208.4 L 577 208.4 L 576.4 208.4 L 575.8000000000001 208.4 L 575.2 208.4 L 574.8000000000001 208.4 L 574.2 208.4 L 573.6 208.4 L 573 208.4 L 572.4 208.4 L 571.8000000000001 208.4 L 571.2 208.4 L 570.6 208.4 L 570 208.4 L 569.4 208.4 L 568.8000000000001 208.4 L 568.4 208.4 L 567.8000000000001 208.4 L 567.2 208.4 L 566.6 208.4 L 566 208.4 L 565.4 208.4 L 564.8000000000001 208.4 L 564.2 208.4 L 563.6 208.4 L 563 208.4 L 562.4 208.4 L 562 208.4 L 561.4 208.4 L 560.8000000000001 208.4 L 560.2 208.4 L 559.6 208.4 L 559 208.4 L 558.4 208.4 L 557.8000000000001 208.4 L 557.2 208.4 L 556.6 208.4 L 556 208.4 L 555.6 208.4 L 555 208.4 L 554.4 208.4 L 553.8000000000001 208.4 L 553.2 208.4 L 552.6 208.4 L 552 208.4 L 551.4 208.4 L 550.8000000000001 208.4 L 550.2 208.4 L 549.6 208.4 L 549.2 208.4 L 548.6 208.4 L 548 208.4 L 547.4 208.4 L 546.8000000000001 208.4 L 546.2 208.4 L 545.6 208.4 L 545 208.4 L 544.4 208.4 L 543.8000000000001 208.4 L 543.2 208.4 L 542.8000000000001 208.4 L 542.2 208.4 L 541.6 208.4 L 541 208.4 L 540.4 208.4 L 539.8000000000001 208.4 L 539.2 208.4 L 538.6 208.4 L 538 208.4 L 537.4 208.4 L 536.8000000000001 208.4 L 536.4 208.4 L 535.8000000000001 208.4 L 535.2 208.4 L 534.6 208.4 L 534 208.4 L 533.4 208.4 L 532.8000000000001 208.4 L 532.2 208.4 L 531.6 208.4 L 531 208.4 L 530.4 208.4 L 529.8000000000001 208.4 L 529.4 208.4 L 528.8000000000001 208.4 L 528.2 208.4 L 527.6 208.4 L 527 208.4 L 526.4 208.4 L 525.8000000000001 208.4 L 525.2 208.4 L 524.6 208.4 L 524 208.4 L 523.4 208.4 L 523 208.4 L 522.4 208.4 L 521.8000000000001 208.4 L 521.2 208.4 L 520.6 208.4 L 520 208.4 L 519.4 208.4 L 518.8000000000001 208.4 L 518.2 208.4 L 517.6 208.4 L 517 208.4 L 516.6 208.4 L 516 208.4 L 515.4 208.4 L 514.8000000000001 208.4 L 514.2 208.4 L 513.6 208.4 L 513 208.4 L 512.4 208.4 L 511.8 208.20000000000002 L 511.20000000000005 208.20000000000002 L 510.6 208.20000000000002 L 510.20000000000005 208 L 509.6 208 L 509 207.8 L 508.40000000000003 207.4 L 507.8 207 L 507.20000000000005 206.4 L 506.6 205.8 L 506 204.8 L 505.40000000000003 203.60000000000002 L 504.8 202 L 504.20000000000005 200.20000000000002 L 503.8 198.20000000000002 L 503.20000000000005 195.8 L 502.6 193.4 L 502 190.60000000000002 L 501.40000000000003 187.8 L 500.8 185 L 500.20000000000005 182.4 L 499.6 180.20000000000002 L 499 178.20000000000002 L 498.40000000000003 177 L 497.8 176.20000000000002 L 497.40000000000003 176 L 496.8 176.60000000000002 L 496.20000000000005 177.8 L 495.6 179.60000000000002 L 495 181.8 L 494.40000000000003 184.20000000000002 L 493.8 187 L 493.20000000000005 189.8 L 492.6 192.60000000000002 L 492 195.20000000000002 L 491.40000000000003 197.60000000000002 L 491 199.8 L 490.40000000000003 201.60000000000002 L 489.8 203.20000000000002 L 489.20000000000005 204.4 L 488.6 205.4 L 488 206.20000000000002 L 487.40000000000003 206.8 L 486.8 207.4 L 486.20000000000005 207.60000000000002 L 485.6 207.8 L 485 208 L 484.6 208.20000000000002 L 484 208.20000000000002 L 483.40000000000003 208.20000000000002 L 482.8 208.4 L 482.20000000000005 208.4 L 481.6 208.4 L 481 208.4 L 480.40000000000003 208.4 L 479.8 208.4 L 479.20000000000005 208.4 L 478.6 208.4 L 478.20000000000005 208.4 L 477.6 208.4 L 477 208.4 L 476.40000000000003 208.4 L 475.8 208.4 L 475.20000000000005 208.4 L 474.6 208.4 L 474 208.4 L 473.40000000000003 208.4 L 472.8 208.4 L 472.20000000000005 208.4 L 471.8 208.4 L 471.20000000000005 208.4 L 470.6 208.4 L 470 208.4 L 469.40000000000003 208.4 L 468.8 208.4 L 468.20000000000005 208.4 L 467.6 208.4 L 467 208.4 L 466.40000000000003 208.4 L 465.8 208.4 L 465.40000000000003 208.4 L 464.8 208.4 L 464.20000000000005 208.4 L 463.6 208.4 L 463 208.4 L 462.40000000000003 208.4 L 461.8 208.4 L 461.20000000000005 208.4 L 460.6 208.4 L 460 208.4 L 459.40000000000003 208.4 L 459 208.4 L 458.40000000000003 208.4 L 457.8 208.4 L 457.20000000000005 208.4 L 456.6 208.4 L 456 208.4 L 455.40000000000003 208.4 L 454.8 208.4 L 454.20000000000005 208.4 L 453.6 208.4 L 453 208.4 L 452.6 208.4 L 452 208.4 L 451.40000000000003 208.4 L 450.8 208.4 L 450.20000000000005 208.20000000000002 L 449.6 208.20000000000002 L 449 208.20000000000002 L 448.40000000000003 208 L 447.8 207.8 L 447.20000000000005 207.60000000000002 L 446.6 207.20000000000002 L 446.20000000000005 206.60000000000002 L 445.6 205.8 L 445 204.60000000000002 L 444.40000000000003 203.20000000000002 L 443.8 201 L 443.20000000000005 198.4 L 442.6 195 L 442 190.60000000000002 L 441.40000000000003 185.60000000000002 L 440.8 179.60000000000002 L 440.20000000000005 172.8 L 439.8 165.4 L 439.20000000000005 157.4 L 438.6 149.20000000000002 L 438 141 L 437.40000000000003 133.20000000000002 L 436.8 126.2 L 436.20000000000005 120.4 L 435.6 116.2 L 435 113.60000000000001 L 434.40000000000003 113 L 433.8 114.2 L 433.40000000000003 117.4 L 432.8 122.2 L 432.20000000000005 128.4 L 431.6 135.8 L 431 143.8 L 430.40000000000003 152 L 429.8 160.20000000000002 L 429.20000000000005 168 L 428.6 175.20000000000002 L 428 181.8 L 427.40000000000003 187.4 L 427 192.20000000000002 L 426.40000000000003 196.20000000000002 L 425.8 199.4 L 425.20000000000005 201.8 L 424.6 203.60000000000002 L 424 205.20000000000002 L 423.40000000000003 206.20000000000002 L 422.8 206.8 L 422.20000000000005 207.4 L 421.6 207.8 L 421 208 L 420.6 208.20000000000002 L 420 208.20000000000002 L 419.40000000000003 208.20000000000002 L 418.8 208.20000000000002 L 418.20000000000005 208.4 L 417.6 208.4 L 417 208.4 L 416.40000000000003 208.4 L 415.8 208.4 L 415.20000000000005 208.4 L 414.6 208.4 L 414 208.4 L 413.6 208.4 L 413 208.4 L 412.40000000000003 208.4 L 411.8 208.4 L 411.20000000000005 208.4 L 410.6 208.4 L 410 208.4 L 409.40000000000003 208.4 L 408.8 208.4 L 408.20000000000005 208.4 L 407.6 208.4 L 407.20000000000005 208.4 L 406.6 208.4 L 406 208.4 L 405.40000000000003 208.4 L 404.8 208.4 L 404.20000000000005 208.4 L 403.6 208.4 L 403 208.4 L 402.40000000000003 208.4 L 401.8 208.4 L 401.20000000000005 208.4 L 400.8 208.4 L 400.20000000000005 208.4 L 399.6 208.4 L 399 208.4 L 398.40000000000003 208.4 L 397.8 208.4 L 397.20000000000005 208.4 L 396.6 208.4 L 396 208.4 L 395.40000000000003 208.4 L 394.8 208.4 L 394.40000000000003 208.4 L 393.8 208.4 L 393.20000000000005 208.4 L 392.6 208.4 L 392 208.4 L 391.40000000000003 208.4 L 390.8 208.4 L 390.20000000000005 208.4 L 389.6 208.4 L 389 208.4 L 388.40000000000003 208.4 L 388 208.4 L 387.40000000000003 208.20000000000002 L 386.8 208.20000000000002 L 386.20000000000005 208.20000000000002 L 385.6 208 L 385 208 L 384.40000000000003 207.60000000000002 L 383.8 207.4 L 383.20000000000005 206.8 L 382.6 206 L 382 205 L 381.6 203.60000000000002 L 381 201.60000000000002 L 380.40000000000003 199 L 379.8 195.8 L 379.20000000000005 191.8 L 378.6 187 L 378 181.4 L 377.40000000000003 174.8 L 376.8 167.60000000000002 L 376.20000000000005 159.8 L 375.6 151.6 L 375.20000000000005 143.6 L 374.6 135.8 L 374 128.8 L 373.40000000000003 122.80000000000001 L 372.8 118.2 L 372.20000000000005 115.4 L 371.6 114.4 L 371 115.2 L 370.40000000000003 118 L 369.8 122.60000000000001 L 369.20000000000005 128.4 L 368.8 135.4 L 368.20000000000005 143.20000000000002 L 367.6 151.20000000000002 L 367 159.4 L 366.40000000000003 167.20000000000002 L 365.8 174.4 L 365.20000000000005 181 L 364.6 186.8 L 364 191.60000000000002 L 363.40000000000003 195.60000000000002 L 362.8 198.8 L 362.40000000000003 201.4 L 361.8 203.4 L 361.20000000000005 205 L 360.6 206 L 360 206.8 L 359.40000000000003 207.4 L 358.8 207.60000000000002 L 358.20000000000005 208 L 357.6 208 L 357 208.20000000000002 L 356.40000000000003 208.20000000000002 L 356 208.20000000000002 L 355.40000000000003 208.4 L 354.8 208.4 L 354.20000000000005 208.4 L 353.6 208.4 L 353 208.4 L 352.40000000000003 208.4 L 351.8 208.4 L 351.20000000000005 208.4 L 350.6 208.4 L 350 208.4 L 349.6 208.4 L 349 208.4 L 348.40000000000003 208.4 L 347.8 208.4 L 347.20000000000005 208.4 L 346.6 208.4 L 346 208.4 L 345.40000000000003 208.4 L 344.8 208.4 L 344.20000000000005 208.4 L 343.6 208.4 L 343.20000000000005 208.4 L 342.6 208.4 L 342 208.4 L 341.40000000000003 208.4 L 340.8 208.4 L 340.20000000000005 208.4 L 339.6 208.4 L 339 208.4 L 338.40000000000003 208.4 L 337.8 208.4 L 337.20000000000005 208.4 L 336.8 208.4 L 336.20000000000005 208.4 L 335.6 208.4 L 335 208.4 L 334.40000000000003 208.4 L 333.8 208.4 L 333.20000000000005 208.4 L 332.6 208.4 L 332 208.4 L 331.40000000000003 208.4 L 330.8 208.4 L 330.40000000000003 208.4 L 329.8 208.4 L 329.20000000000005 208.4 L 328.6 208.4 L 328 208.4 L 327.40000000000003 208.4 L 326.8 208.4 L 326.20000000000005 208.4 L 325.6 208.4 L 325 208.4 L 324.40000000000003 208.4 L 324 208.4 L 323.40000000000003 208.4 L 322.8 208.20000000000002 L 322.20000000000005 208.20000000000002 L 321.6 208.20000000000002 L 321 208 L 320.40000000000003 207.8 L 319.8 207.60000000000002 L 319.20000000000005 207.4 L 318.6 206.8 L 318 206.20000000000002 L 317.6 205.4 L 317 204.4 L 316.40000000000003 203.20000000000002 L 315.8 201.60000000000002 L 315.20000000000005 199.8 L 314.6 197.8 L 314 195.4 L 313.40000000000003 193 L 312.8 190.20000000000002 L 312.20000000000005 187.60000000000002 L 311.6 185 L 311.20000000000005 182.60000000000002 L 310.6 180.60000000000002 L 310 179 L 309.40000000000003 178 L 308.8 177.60000000000002 L 308.20000000000005 177.60000000000002 L 307.6 178.4 L 307 179.8 L 306.40000000000003 181.8 L 305.8 184 L 305.2 186.4 L 304.8 189 L 304.2 191.8 L 303.6 194.4 L 303 196.8 L 302.40000000000003 199 L 301.8 201 L 301.2 202.60000000000002 L 300.6 204 L 300 205 L 299.40000000000003 206 L 298.8 206.60000000000002 L 298.2 207.20000000000002 L 297.8 207.60000000000002 L 297.2 207.8 L 296.6 208 L 296 208.20000000000002 L 295.40000000000003 208.20000000000002 L 294.8 208.20000000000002 L 294.2 208.20000000000002 L 293.6 208.4 L 293 208.4 L 292.40000000000003 208.4 L 291.8 208.4 L 291.40000000000003 208.4 L 290.8 208.4 L 290.2 208.4 L 289.6 208.4 L 289 208.4 L 288.40000000000003 208.4 L 287.8 208.4 L 287.2 208.4 L 286.6 208.4 L 286 208.4 L 285.40000000000003 208.4 L 285 208.4 L 284.40000000000003 208.4 L 283.8 208.4 L 283.2 208.4 L 282.6 208.4 L 282 208.4 L 281.40000000000003 208.4 L 280.8 208.4 L 280.2 208.4 L 279.6 208.4 L 279 208.4 L 278.6 208.4 L 278 208.4 L 277.40000000000003 208.4 L 276.8 208.4 L 276.2 208.4 L 275.6 208.4 L 275 208.4 L 274.40000000000003 208.4 L 273.8 208.4 L 273.2 208.4 L 272.6 208.4 L 272.2 208.4 L 271.6 208.4 L 271 208.4 L 270.40000000000003 208.4 L 269.8 208.4 L 269.2 208.4 L 268.6 208.4 L 268 208.4 L 267.40000000000003 208.4 L 266.8 208.4 L 266.2 208.4 L 265.8 208.4 L 265.2 208.4 L 264.6 208.4 L 264 208.4 L 263.40000000000003 208.4 L 262.8 208.4 L 262.2 208.4 L 261.6 208.4 L 261 208.4 L 260.40000000000003 208.4 L 259.8 208.4 L 259.40000000000003 208.4 L 258.8 208.4 L 258.2 208.4 L 257.6 208.4 L 257 208.4 L 256.40000000000003 208.4 L 255.8 208.4 L 255.20000000000002 208.4 L 254.60000000000002 208.4 L 254 208.4 L 253.4 208.4 L 253 208.4 L 252.4 208.4 L 251.8 208.4 L 251.20000000000002 208.4 L 250.60000000000002 208.4 L 250 208.4 L 249.4 208.4 L 248.8 208.4 L 248.20000000000002 208.4 L 247.60000000000002 208.4 L 247 208.4 L 246.60000000000002 208.4 L 246 208.4 L 245.4 208.4 L 244.8 208.4 L 244.20000000000002 208.4 L 243.60000000000002 208.4 L 243 208.4 L 242.4 208.4 L 241.8 208.4 L 241.20000000000002 208.4 L 240.60000000000002 208.4 L 240.20000000000002 208.4 L 239.60000000000002 208.4 L 239 208.4 L 238.4 208.4 L 237.8 208.4 L 237.20000000000002 208.4 L 236.60000000000002 208.4 L 236 208.4 L 235.4 208.4 L 234.8 208.4 L 234.20000000000002 208.4 L 233.8 208.4 L 233.20000000000002 208.4 L 232.60000000000002 208.4 L 232 208.4 L 231.4 208.4 L 230.8 208.4 L 230.20000000000002 208.4 L 229.60000000000002 208.4 L 229 208.4 L 228.4 208.4 L 227.8 208.4 L 227.4 208.4 L 226.8 208.4 L 226.20000000000002 208.4 L 225.60000000000002 208.4 L 225 208.4 L 224.4 208.4 L 223.8 208.4 L 223.20000000000002 208.4 L 222.60000000000002 208.4 L 222 208.4 L 221.4 208.4 L 221 208.4 L 220.4 208.4 L 219.8 208.4 L 219.20000000000002 208.4 L 218.60000000000002 208.4 L 218 208.4 L 217.4 208.4 L 216.8 208.4 L 216.20000000000002 208.4 L 215.60000000000002 208.4 L 215 208.4 L 214.60000000000002 208.4 L 214 208.4 L 213.4 208.4 L 212.8 208.4 L 212.20000000000002 208.4 L 211.60000000000002 208.4 L 211 208.4 L 210.4 208.4 L 209.8 208.4 L 209.20000000000002 208.4 L 208.60000000000002 208.4 L 208.20000000000002 208.4 L 207.60000000000002 208.4 L 207 208.4 L 206.4 208.4 L 205.8 208.4 L 205.20000000000002 208.4 L 204.60000000000002 208.4 L 204 208.4 L 203.4 208.4 L 202.8 208.4 L 202.20000000000002 208.4 L 201.8 208.4 L 201.20000000000002 208.4 L 200.60000000000002 208.4 L 200 208.4 L 199.4 208.4 L 198.8 208.4 L 198.20000000000002 208.4 L 197.60000000000002 208.4 L 197 208.4 L 196.4 208.4 L 195.8 208.4 L 195.4 208.4 L 194.8 208.4 L 194.20000000000002 208.4 L 193.60000000000002 208.4 L 193 208.4 L 192.4 208.4 L 191.8 208.4 L 191.20000000000002 208.4 L 190.60000000000002 208.4 L 190 208.4 L 189.4 208.4 L 188.8 208.4 L 188.4 208.4 L 187.8 208.4 L 187.20000000000002 208.4 L 186.60000000000002 208.4 L 186 208.4 L 185.4 208.4 L 184.8 208.4 L 184.20000000000002 208.4 L 183.60000000000002 208.4 L 183 208.4 L 182.4 208.4 L 182 208.4 L 181.4 208.4 L 180.8 208.4 L 180.20000000000002 208.4 L 179.60000000000002 208.4 L 179 208.4 L 178.4 208.4 L 177.8 208.4 L 177.20000000000002 208.4 L 176.60000000000002 208.4 L 176 208.4 L 175.60000000000002 208.4 L 175 208.4 L 174.4 208.4 L 173.8 208.4 L 173.20000000000002 208.4 L 172.60000000000002 208.4 L 172 208.4 L 171.4 208.4 L 170.8 208.4 L 170.20000000000002 208.4 L 169.60000000000002 208.4 L 169.20000000000002 208.4 L 168.60000000000002 208.4 L 168 208.4 L 167.4 208.4 L 166.8 208.4 L 166.20000000000002 208.4 L 165.60000000000002 208.4 L 165 208.4 L 164.4 208.4 L 163.8 208.4 L 163.20000000000002 208.4 L 162.8 208.4 L 162.20000000000002 208.4 L 161.60000000000002 208.4 L 161 208.4 L 160.4 208.4 L 159.8 208.4 L 159.20000000000002 208.4 L 158.60000000000002 208.4 L 158 208.4 L 157.4 208.4 L 156.8 208.4 L 156.4 208.4 L 155.8 208.4 L 155.20000000000002 208.4 L 154.60000000000002 208.4 L 154 208.4 L 153.4 208.4 L 152.8 208.4 L 152.20000000000002 208.4 L 151.6 208.4 L 151 208.4 L 150.4 208.4 L 150 208.4 L 149.4 208.4 L 148.8 208.4 L 148.20000000000002 208.4 L 147.6 208.4 L 147 208.4 L 146.4 208.4 L 145.8 208.4 L 145.20000000000002 208.4 L 144.6 208.4 L 144 208.4 L 143.6 208.4 L 143 208.4 L 142.4 208.4 L 141.8 208.4 L 141.20000000000002 208.4 L 140.6 208.4 L 140 208.4 L 139.4 208.4 L 138.8 208.4 L 138.20000000000002 208.4 L 137.6 208.4 L 137.20000000000002 208.4 L 136.6 208.4 L 136 208.4 L 135.4 208.4 L 134.8 208.4 L 134.20000000000002 208.4 L 133.6 208.4 L 133 208.4 L 132.4 208.4 L 131.8 208.4 L 131.20000000000002 208.4 L 130.8 208.4 L 130.20000000000002 208.4 L 129.6 208.4 L 129 208.4 L 128.4 208.4 L 127.80000000000001 208.4 L 127.2 208.4 L 126.60000000000001 208.4 L 126 208.4 L 125.4 208.4 L 124.80000000000001 208.4 L 124.4 208.4 L 123.80000000000001 208.4 L 123.2 208.4 L 122.60000000000001 208.4 L 122 208.4 L 121.4 208.4 L 120.80000000000001 208.4 L 120.2 208.4 L 119.60000000000001 208.4 L 119 208.4 L 118.4 208.4 L 118 208.4 L 117.4 208.4 L 116.80000000000001 208.4 L 116.2 208.4 L 115.60000000000001 208.4 L 115 208.4 L 114.4 208.4 L 113.80000000000001 208.4 L 113.2 208.4 L 112.60000000000001 208.4 L 112 208.4 L 111.60000000000001 208.4 L 111 208.4 L 110.4 208.4 L 109.80000000000001 208.4 L 109.2 208.4 L 108.60000000000001 208.4 L 108 208.4 L 107.4 208.4 L 106.80000000000001 208.4 L 106.2 208.4 L 105.60000000000001 208.4 L 105.2 208.4 L 104.60000000000001 208.4 L 104 208.4 L 103.4 208.4 L 102.80000000000001 208.4 L 102.2 208.4 L 101.60000000000001 208.4 L 101 208.4 L 100.4 208.4 L 99.80000000000001 208.4 L 99.2 208.4 L 98.80000000000001 208.4 L 98.2 208.4 L 97.60000000000001 208.4 L 97 208.4 L 96.4 208.4 L 95.80000000000001 208.4 L 95.2 208.4 L 94.60000000000001 208.4 L 94 208.4 L 93.4 208.4 L 92.80000000000001 208.4 L 92.4 208.4 L 91.80000000000001 208.4 L 91.2 208.4 L 90.60000000000001 208.4 L 90 208.4 L 89.4 208.4 L 88.80000000000001 208.4 L 88.2 208.4 L 87.60000000000001 208.4 L 87 208.4 L 86.4 208.4 L 86 208.4 L 85.4 208.4 L 84.80000000000001 208.4 L 84.2 208.4 L 83.60000000000001 208.4 L 83 208.4 L 82.4 208.4 L 81.80000000000001 208.4 L 81.2 208.4 L 80.60000000000001 208.4 L 80 208.4 L 79.60000000000001 208.4 L 79 208.4 L 78.4 208.4 L 77.80000000000001 208.4 L 77.2 208.4 L 76.60000000000001 208.4 L 76 208.4 L 75.4 208.4 L 74.8 208.4 L 74.2 208.4 L 73.60000000000001 208.4 L 73 208.4 L 72.60000000000001 208.4 L 72 208.4 L 71.4 208.4 L 70.8 208.4 L 70.2 208.4 L 69.60000000000001 208.4 L 69 208.4 L 68.4 208.4 L 67.8 208.4 L 67.2 208.4 L 66.60000000000001 208.4 L 66.2 208.4 L 65.60000000000001 208.4 L 65 208.4 L 64.4 208.4 L 63.800000000000004 208.4 L 63.2 208.4 L 62.6 208.4 L 62 208.4 L 61.400000000000006 208.4 L 60.800000000000004 208.4 L 60.2 208.4 L 59.800000000000004 208.4 L 59.2 208.4 L 58.6 208.4 L 58 208.4 L 57.400000000000006 208.4 L 56.800000000000004 208.4 L 56.2 208.4 L 55.6 208.4 L 55 208.4 L 54.400000000000006 208.4 L 53.800000000000004 208.4 L 53.400000000000006 208.4 L 52.800000000000004 208.4 L 52.2 208.4 L 51.6 208.4 L 51 208.4 L 50.400000000000006 208.4 L 49.800000000000004 208.4 L 49.2 208.4 L 48.6 208.4 L 48 208.4 L 47.400000000000006 208.4 L 47 208.4 L 46.400000000000006 208.4 L 45.800000000000004 208.4 L 45.2 208.4 L 44.6 208.4 L 44 208.4 L 43.400000000000006 208.4 L 42.800000000000004 208.4 L 42.2 208.4 L 41.6 208.4 L 41 208.4 L 40.6 208.4 L 40 208.4 L 39.400000000000006 208.4 L 38.800000000000004 208.4 L 38.2 208.4 L 37.6 208.4 L 37 208.4 L 36.4 208.4 L 35.800000000000004 208.4 L 35.2 208.4 L 34.6 208.4 L 34.2 208.4 L 33.6 208.4 L 33 208.4 L 32.4 208.4 L 31.8 208.4 L 31.200000000000003 208.4 L 30.6 208.4 L 30 208.4 L 29.400000000000002 208.4 L 28.8 208.4 L 28.200000000000003 208.4 L 27.8 208.4 L 27.200000000000003 208.4 L 26.6 208.4 L 26 208.4 L 25.400000000000002 208.4 L 24.8 208.4 L 24.200000000000003 208.4 L 23.6 208.4 L 23 208.4 L 22.400000000000002 208.4 L 21.8 208.4 L 21.400000000000002 208.4 L 20.8 208.4 L 20.200000000000003 208.4 L 19.6 208.4 L 19 208.4 L 18.400000000000002 208.4 L 17.8 208.4 L 17.2 208.4 L 16.6 208.4 L 16 208.4 L 15.4 208.4 L 15 208.4 L 14.4 208.4 L 13.8 208.4 L 13.200000000000001 208.4 L 12.600000000000001 208.4 L 12 208.4 L 11.4 208.4 L 10.8 208.4 L 10.200000000000001 208.4 L 9.600000000000001 208.4 L 9 208.4 L 8.6 208.4 L 8 208.4 L 7.4 208.4 L 6.800000000000001 208.4 L 6.2 208.4 L 5.6000000000000005 208.4 L 5 208.4 L 4.4 208.4 L 3.8000000000000003 208.4 L 3.2 208.4 L 2.6 208.4 L 2.2 208.4 L 1.6 208.4 L 1 208.4 L 0.4 208.4 L 0 208.4 "/></g><circle fill="black" r="3" display="none"/><g/><rect fill="white"/><text/></g></g><g><g clip-path="url(#_clipplot9d8e1cc4-249c-4b4e-915d-689630734926)"><rect data-label-i="0" display="initial"/><text data-label-i="0" display="initial"/></g><g clip-path="url(#_clipplot9d8e1cc4-249c-4b4e-915d-689630734926)"><rect data-label-i="0" display="initial"/><text data-label-i="0" display="initial"/></g><g clip-path="url(#_clipplot9d8e1cc4-249c-4b4e-915d-689630734926)"><rect data-label-i="0" display="initial"/><text data-label-i="0" display="initial"/></g><g clip-path="url(#_clipplot9d8e1cc4-249c-4b4e-915d-689630734926)"><rect data-label-i="0" display="initial"/><text data-label-i="0" display="initial"/></g><g clip-path="url(#_clipplot9d8e1cc4-249c-4b4e-915d-689630734926)"><rect fill="green" stroke="red" stroke-width="1px" width="444.31779661016844" height="5" x="8292.832864822409" y="0"/><rect data-label-i="0" display="initial" x="8511.6591796875" y="11" width="6.666666507720947" height="13" fill="transparent" fill-opacity="1"/><text data-label-i="0" display="initial" x="8514.991763127495" y="20" dominant-baseline="no-change" fill="red" font-size="11pxpx" text-anchor="middle" stroke="black" stroke-width="0px" stroke-location="outside">3</text></g><g clip-path="url(#_clipplot9d8e1cc4-249c-4b4e-915d-689630734926)"><rect fill="green" stroke="red" stroke-width="1px" width="444.3177966101688" height="5" x="181.39218685631442" y="0"/><rect data-label-i="0" display="initial" x="400.2177429199219" y="11" width="6.666666507720947" height="13" fill="transparent" fill-opacity="1"/><text data-label-i="0" display="initial" x="403.5510851613988" y="20" dominant-baseline="no-change" fill="red" font-size="11pxpx" text-anchor="middle" stroke="black" stroke-width="0px" stroke-location="outside">2</text></g></g></g></g><line stroke="black" shape-rendering="crispEdges" stroke-linecap="square" display="none"/><line stroke="black" shape-rendering="crispEdges" stroke-linecap="square" display="none"/><line stroke="black" shape-rendering="crispEdges" stroke-linecap="square" display="none"/><line stroke="black" shape-rendering="crispEdges" stroke-linecap="square" display="none"/></g><g><rect display="none" fill="rgba(171,12,12,0.2)" stroke="rgba(171,12,12,1)" shape-rendering="crispEdges" x="363.2166748046875" y="30" height="217.92432403564453" width="162" pointer-events="none"/></g></g><g display="block" transform="translate(384, 289.92432403564453)"><rect x="-5" y="-6" stroke="rgba( 100, 100, 100, 0.5 )" stroke-width="1px" rx="0" ry="0" fill="rgba( 255, 255, 255, 0.8 )" width="170.5500030517578" height="35.07567596435547"/><symbol id="308ea770-96c3-45e3-b8f8-d4edc734254d" viewBox="0 -256 1850 1850"><rect pointer-events="fill" x="-256" y="0" fill="transparent" width="2106" height="1850"/><g transform="matrix(1,0,0,-1,30.372881,1259.8983)"><path d="m 1664,576 q -152,236 -381,353 61,-104 61,-225 0,-185 -131.5,-316.5 Q 1081,256 896,256 711,256 579.5,387.5 448,519 448,704 448,825 509,929 280,812 128,576 261,371 461.5,249.5 662,128 896,128 1130,128 1330.5,249.5 1531,371 1664,576 z M 944,960 q 0,20 -14,34 -14,14 -34,14 -125,0 -214.5,-89.5 Q 592,829 592,704 q 0,-20 14,-34 14,-14 34,-14 20,0 34,14 14,14 14,34 0,86 61,147 61,61 147,61 20,0 34,14 14,14 14,34 z m 848,-384 q 0,-34 -20,-69 Q 1632,277 1395.5,138.5 1159,0 896,0 633,0 396.5,139 160,278 20,507 0,542 0,576 q 0,34 20,69 140,229 376.5,368 236.5,139 499.5,139 263,0 499.5,-139 236.5,-139 376.5,-368 20,-35 20,-69 z" fill="#444444"/></g></symbol><symbol id="48384d46-f14c-4686-8a96-a4e73250c807" viewBox="0 -256 1850 1850"><rect pointer-events="fill" fill="transparent" x="-256" y="0" width="2106" height="1850"/><g transform="matrix(1,0,0,-1,30.372881,1214.339)"><path d="m 555,201 78,141 q -87,63 -136,159 -49,96 -49,203 0,121 61,225 Q 280,812 128,576 295,318 555,201 z m 389,759 q 0,20 -14,34 -14,14 -34,14 -125,0 -214.5,-89.5 Q 592,829 592,704 q 0,-20 14,-34 14,-14 34,-14 20,0 34,14 14,14 14,34 0,86 61,147 61,61 147,61 20,0 34,14 14,14 14,34 z m 363,191 q 0,-7 -1,-9 Q 1201,954 991,576 781,198 675,9 l -49,-89 q -10,-16 -28,-16 -12,0 -134,70 -16,10 -16,28 0,12 44,87 Q 349,154 228.5,262 108,370 20,507 0,538 0,576 q 0,38 20,69 153,235 380,371 227,136 496,136 89,0 180,-17 l 54,97 q 10,16 28,16 5,0 18,-6 13,-6 31,-15.5 18,-9.5 33,-18.5 15,-9 31.5,-18.5 16.5,-9.5 19.5,-11.5 16,-10 16,-27 z m 37,-447 Q 1344,565 1265,450.5 1186,336 1056,286 l 280,502 q 8,-45 8,-84 z m 448,-128 q 0,-35 -20,-69 Q 1733,443 1663,362 1513,190 1315.5,95 1118,0 896,0 l 74,132 q 212,18 392.5,137 180.5,119 301.5,307 -115,179 -282,294 l 63,112 q 95,-64 182.5,-153 87.5,-89 144.5,-184 20,-34 20,-69 z" fill="#c0c0c0"/></g></symbol><g><g transform="translate( 0, 10)"><rect x="5" y="-6" width="150.5500030517578" height="15.075675964355469" fill="none" pointer-events="fill"/><g><line stroke="rgba(0,0,0,1)" stroke-width="1" fill="none" x1="5" x2="25" y1="0" y2="0" cursor="pointer"/></g><use xlink:href="#308ea770-96c3-45e3-b8f8-d4edc734254d" width="15" height="15" x="35" y="-8"/><text cursor="pointer" transform="translate(55, 3)" fill="black">predictedSpectrum</text></g></g><rect x="0" y="0" width="170.5500030517578" height="35.07567596435547" fill="none" pointer-events="fill" display="none"/></g></svg>